<?xml version="1.0" encoding="utf-8"?>
<!-- Generator: Adobe Illustrator 17.0.0, SVG Export Plug-In . SVG Version: 6.00 Build 0)  -->
<!DOCTYPE svg PUBLIC "-//W3C//DTD SVG 1.1//EN" "http://www.w3.org/Graphics/SVG/1.1/DTD/svg11.dtd">
<svg version="1.1" id="Layer_1" xmlns="http://www.w3.org/2000/svg" xmlns:xlink="http://www.w3.org/1999/xlink" x="0px" y="0px"
	 width="803.6px" height="486px" viewBox="0 0 803.6 486" enable-background="new 0 0 803.6 486" xml:space="preserve">
<g id="Layer_1_1_">
	<g>
		<path fill="#4539E4" d="M319.698,140.191c-8.669-0.243-17.539-1.938-26.138,1.526c-8.81,3.55-9.977,2.979-15.264-5.05
			c-0.364-0.553-0.701-1.131-0.994-1.725c-4.545-9.208-10.834-17.066-18.255-24.121c-4.464-4.244-8.834-8.62-12.907-13.237
			c-13.62-15.435-31.333-21.555-51.2-23.006c-2.197-0.16-4.86-0.609-4.697-3.387c0.377-6.428-4.384-7.857-8.76-8.955
			c-11.405-2.863-22.374,0.809-32.999,4.03c-6.319,1.916-12.453,5.349-18.637,7.818c-15.118,6.037-27.85,14.614-37.334,27.831
			c-5.695,7.936-12.605,15.237-16.086,24.455c-6.358,16.838-12.407,33.8-18.356,50.797c-6.683,19.096-14.21,37.883-27.743,53.57
			c-11.972,13.878-21.081,29.568-27.901,46.577c-2.745,6.846-3.109,13.791-1.364,21.016c3.065,12.689,11.046,21.636,22.929,25.294
			c7.762,2.39,16.861,1.91,24.95-1.14c7.286-2.747,13.597-7.463,20.301-11.393c9.032-5.295,14.979-12.472,16.744-22.881
			c0.305-1.795,0.538-3.518,2.628-4.162c1.496,3.048,2.844,5.876,4.262,8.667c2.033,4.003,5.883,7.8,0.761,12.354
			c-0.848,0.754-0.908,2.459-1.209,3.754c-1.648,7.092-3.768,14.112-5.796,21.044c-3.498,11.958-8.388,23.518-10.645,35.873
			c-0.389,2.127-0.77,4.255-1.149,6.383c-0.303,1.697,0.258,3,1.936,3.543c1.904,0.616,2.159-0.931,2.569-2.183
			c1.085-3.313,3.52-4.203,6.685-3.657c5.565,0.959,11.1,2.11,16.686,2.912c4.248,0.61,5.155,3.053,4.342,6.719
			c-0.432,1.946-1.235,3.837-1.438,5.798c-0.173,1.674,0.364,3.598,2.468,3.684c1.825,0.075,1.461-1.851,1.764-2.998
			c0.721-2.728,1.359-5.481,1.942-8.242c0.504-2.389,2.522-3.895,4.278-3.299c5.514,1.871,11.541,1.306,16.86,3.876
			c1.97,0.952,3.151,2.447,1.845,4.315c-1.971,2.819-1.138,5.794-1.091,8.706c0.021,1.323-1.046,3.765,1.9,3.619
			c2.542-0.126,2.654-2.09,2.646-4.002c-0.006-1.499-0.1-2.998-0.099-4.497c0.002-2.186-0.064-4.523,2.316-5.625
			c5.803-2.686,11.45-0.005,17.082,0.879c3.72,0.584,2.282,4.178,2.835,6.596c0.463,2.025,1.935,3.318,4.02,2.846
			c2.067-0.467,1.592-2.165,0.995-3.626c-1.548-3.786,0.613-4.277,3.623-4.236c3.806,0.051,7.564,2.042,10.923,1.926
			c5.969-0.206,8.218,1.876,8.821,7.322c0.247,2.228,1.652,4.694,4.154,3.815c2.143-0.753,0.888-3.183,0.14-4.771
			c-1.832-3.885,0.476-4.333,3.346-3.976c3.946,0.491,7.853,1.286,11.783,1.907c1.335,0.211,2.96,0.394,3.309-1.305
			c0.413-2.014-1.38-2.417-2.826-2.724c-2.767-0.588-5.549-1.139-8.351-1.516c-7.282-0.981-7.288-0.941-7.577-8.043
			c-1.755,0.056-2.442,1.624-3.433,2.592c-3.243,3.171-7.133,3.558-11.119,2.465c-2.122-0.582-4.16-0.966-6.333-0.996
			c-3.204-0.044-5.865-1.334-5.673-4.853c0.216-3.953-0.738-10.003,4.19-10.565c6.803-0.775,14.397-1.632,20.367,3.823
			c0.826,0.755,1.52,1.933,2.874,0.81c5.077-4.212,10.198-0.538,15.199,0.147c3.854,0.528,5.789,3.357,5.751,7.537
			c-0.036,3.896-0.098,7.921,2.682,11.711c1.249-1.574,1.505-2.834,1.511-4.216c0.018-3.933-0.735-8.043,2.937-11.097
			c0.548-0.456,0.565-1.952,0.351-2.854c-1.147-4.832-0.335-9.575-0.178-14.421c0.312-9.62,1.873-19.016,3.059-28.48
			c1.053-8.405,4.953-15.713,11.538-20.898c13.422-10.565,24.93-23.027,36.764-35.215c10.702-11.022,16.994-24.736,21.791-38.676
			c6.019-17.488,6.103-35.984,2.713-54.311c-1.354-7.32-0.425-8.425,6.702-10.566c8.271-2.484,16.688-4.874,21.476-13.212
			C329.08,149.07,325.974,140.368,319.698,140.191z M66.912,306.554c-7.373,4.79-14.547,9.888-23.329,12.047
			c-22.707,5.581-38.926-9.607-38.93-29.623c-0.323-4.461,1.299-8.972,3.546-13.306c4.672-9.011,9.858-17.686,15.943-25.848
			c21.763-29.19,37.466-61.391,47.801-96.294c6.856-23.155,18.169-43.826,35.339-61.078c1.652-1.66,3.19-3.424,5.263-4.536
			c18.496-9.929,37.382-18.862,58.326-22.42c3.51-0.596,6.895,0.393,10.273,1.106c2.536,0.535,4.078,2.08,4.089,4.876
			c0.012,3.164-2.331,3.825-4.648,4.22c-14.779,2.522-28.68,7.862-41.125,15.837c-37.563,24.071-60.446,57.666-64.248,103.002
			c-2.231,26.606,0.372,52.888,5.359,78.976C83.624,289.48,80.422,297.776,66.912,306.554z M92.115,328.666
			c2.223-7.097,2.537-14.779,6.753-21.279c1.746-2.691,2.626-1.968,4.138,0.183c4.003,5.692,9.465,9.92,15.488,13.114
			c3.955,2.097,3.912,4.269,2.94,8.023c-1.043,4.031-3.035,5.669-6.984,5.328c-0.497-0.043-0.993-0.1-1.866-0.188
			c-6.418,0.631-12.417-3.615-19.194-3.16C91.802,330.794,91.858,329.487,92.115,328.666z M111.361,359.631
			c-0.195,8.467-1.935,9.967-9.944,8.707c-4.428-0.696-8.858-1.402-13.26-2.244c-4.925-0.942-6.088-2.829-5.016-7.732
			c2.088-9.554,2.126-9.559,11.368-7.145c4.176,1.091,8.371,2.109,12.572,3.101C110.055,355.021,111.912,356.502,111.361,359.631z
			 M110.337,350.76c-6.466-1.208-13.416-2.794-20.036-5.341c-4.83-1.859-2.047-5.624-1.51-8.887c0.622-3.779,2.978-2.05,4.876-1.956
			c6.763,0.335,13.091,3.284,19.924,3.277c3.06-0.003,3.918,1.84,3.499,4.658C116.245,348.188,114.417,350.677,110.337,350.76z
			 M129.619,372.968c-3.763-0.464-7.49-0.907-11.229-1.697c-4.876-1.03-3.979-4.27-3.375-7.204c0.626-3.039,1.019-6.815,4.746-6.632
			c6.05,1.02,11.108,1.849,16.157,2.734c2.258,0.396,3.322,1.625,3.302,4.115C139.163,371.217,136.333,373.796,129.619,372.968z
			 M133.648,355.552c-3.242-0.648-6.571-0.852-9.827-1.443c-3.815-0.693-5.5-2.833-4.064-6.771c0.508-1.394,1.029-2.787,1.46-4.205
			c1.023-3.37,2.931-4.724,6.617-3.751c3.344,0.882,6.833,1.356,10.288,1.633c3.494,0.28,5.487,1.345,4.32,4.603
			c-0.207,1.973-0.257,3.309-0.498,4.609C140.784,356.465,140.071,356.836,133.648,355.552z M124.241,332.416
			c0.876-2.67,1.056-6.543,4.892-6.66c5.175-0.158,10.126,1.679,15,3.233c2.692,0.858,1.436,3.437,0.851,5.178
			c-0.557,1.656-0.557,4.339-3.031,3.761c-5.364-0.922-10.021-2.191-14.917-2.144C125.38,335.8,123.611,334.338,124.241,332.416z
			 M160.714,376.805c-1.766,2.486-17.914-0.882-19.2-3.7c-2.434-5.333,2.782-11.124,11.479-11.079
			c0.333,0.033,2.214-0.034,3.941,0.45c2.207,0.617,5.425-0.391,6.183,2.978C164.038,369.547,163.046,373.522,160.714,376.805z
			 M166.301,352.387c-0.515,3.384-1.014,6.358-5.389,6.251c-1.66-0.041-3.321-0.007-4.982-0.007
			c0.001-0.091,0.001-0.182,0.002-0.273c-0.664-0.044-1.327-0.096-1.991-0.13c-8.835-0.444-10.458-3.114-7.032-11.277
			c1.07-2.549,2.703-3.681,5.419-3.112c3.408,0.714,6.817,1.428,10.213,2.197C166.007,346.821,166.814,349.017,166.301,352.387z
			 M165.129,342.752c-3.883-0.873-7.768-1.733-11.646-2.625c-2.181-0.502-4.491-1.18-4.106-4.015
			c0.376-2.77,0.904-6.463,4.147-6.692c5.619-0.397,11.159-1.966,16.862-1.297c3.082,0.362,4.007,1.844,2.756,4.679
			c-1.134,2.569-2.263,5.141-3.416,7.701C168.819,342.511,167.175,342.961,165.129,342.752z M193.135,354.932
			c-0.785,3.314-0.913,7.529-5.845,7.177c-4.288-0.307-8.557-1.151-12.777-2.03c-3.194-0.665-5.666-2.349-4.786-6.207
			c0.783-3.434,2.153-6.436,6.135-5.839c4.611,0.403,8.76,0.663,12.882,1.157C192.031,349.585,193.992,351.315,193.135,354.932z
			 M186.626,345.09c-1.164,0-2.361,0.177-3.488-0.028c-10.874-1.977-11.048-1.682-5.746-11.82c2.742-5.243,8.399-7.105,14.139-6.136
			c3.901,0.659,5.495,2.797,5.09,6.513c-0.323,2.968-0.765,5.942-1.449,8.845C194.523,345.223,193.272,345.531,186.626,345.09z
			 M220.949,325.568c-0.357,11.64-2.835,23.035-4.121,34.571c-0.699,6.27-2.827,7.064-8.83,5.209
			c-2.528-0.781-5.193-1.104-7.775-1.724c-3.849-0.923-4.952-3.279-3.962-7.095c1.026-3.953,2.825-6.337,7.337-5.229
			c2.168,0.532,4.282,2.081,7.002,0.302c-1.186-2.988-3.671-3.276-6.188-3.67c-3.878-0.608-6.029-2.496-4.952-6.853
			c0.595-2.404,0.601-4.958,1.236-7.348c1.751-6.589,12.647-12.623,19.159-10.88C221.72,323.349,220.98,324.56,220.949,325.568z
			 M248.093,289.486c-2.097,2.12-4.298,4.14-6.489,6.165c-2.528,2.338-5.011,2.351-7.299-0.333
			c-3.55-4.163-7.082-8.342-10.579-12.549c-1.845-2.219-2.678-4.682-0.772-7.252c2.149-2.898,4.904-5.666,8.719-4.36
			c7.443,2.548,12.762,8.096,17.606,14.073c0.3,0.37,0.433,0.874,0.722,1.482C249.393,287.614,248.882,288.688,248.093,289.486z
			 M283.358,248.36c-7.15,12.847-17.132,23.239-27.249,33.613c-1.94,1.989-2.784,0.603-3.924-0.577
			c-4.276-4.429-8.416-9.011-14.097-11.763c-2.701-1.309-5.392-2.612-8.474-2.696c-5.028-0.137-8.547,2.485-11.097,6.46
			c-2.388,3.723-1.184,7.33,0.993,10.747c3.42,5.369,7.958,9.817,12.109,14.575c1.75,2.006,1.791,3.369,0.105,5.472
			c-9.964,12.421-22.467,19.964-38.726,18.866c-10.564-0.713-20.913,0.513-31.348,1.26c-11.933,0.854-23.531-0.873-34.907-4.552
			c-12.224-3.953-19.729-13.232-26.131-23.431C84.5,270.669,80.099,241.973,79.69,212.346c-0.257-15.253,1.741-30.181,5.663-44.91
			c6.099-22.906,19.204-41.026,37.475-55.691c6.488-5.207,13.105-10.254,19.571-15.487c11.206-9.071,25.268-10.474,38.378-14.416
			c8.756-2.633,17.495-2.048,26.576-0.972c14.218,1.685,24.397,9.909,34.407,18.576c12.139,10.511,21.863,23.186,31.191,36.232
			c5.433,7.599,8.551,16.448,14.154,23.899c2.08,2.767,2.802,6.227,0.899,9.408c-1.453,2.428-0.409,3.441,1.394,4.805
			c3.502,2.649,5.464,6.391,5.653,10.707C296.022,206.656,294.505,228.329,283.358,248.36z M318.532,154.757
			c-5.422,5.246-11.917,8.529-19.386,9.395c-5.448,0.631-12.948-9.439-11.063-14.425c0.618-1.635,2.182-1.994,3.583-2.406
			c2.706-0.795,5.429-1.619,8.204-2.062c2.614-0.418,5.304-0.362,7.96-0.514c0.003,0.058,0.005,0.115,0.008,0.173
			c2.333,0,4.674-0.125,6.996,0.035c2.275,0.157,4.237,1.187,5.141,3.393C320.953,150.73,320.357,152.991,318.532,154.757z"/>
		<path fill="#4539E4" d="M502.44,164.674c1.693-0.422,1.092-1.606,0.866-2.781c-0.636-3.302,1.11-5.397,3.856-6.788
			c2.367-1.199,4.836-2.196,7.207-3.387c2.032-1.021,3.939-2.855,6.06-0.123c1.852,2.385,1.348,4.71-0.204,6.884
			c-1.739,2.435-3.596,4.798-5.557,7.058c-8.383,9.66-14.411,21.129-23.745,30.112c-4.924,4.739-5.053,11.853-1.67,18.064
			c0.554,1.017,1.19,2.217,2.604,1.594c1.546-0.682,1.617-2.205,0.916-3.413c-4.4-7.574,0.835-12.398,4.919-17.535
			c0.548-0.688,1.168-1.871,2.356-1.253c0.949,0.494,1.259,1.606,1.178,2.611c-0.428,5.33,1.624,10.128,3.153,15.03
			c2.438,7.815,0.407,11.746-7.536,14.377c-2.203,0.729-4.559,1.236-6.108,3.152c-4.273,5.285-5.073,20.321-1.479,26.33
			c0.683,1.143,1.675,1.786,2.882,1.277c1.218-0.513,1.609-1.775,0.981-2.925c-1.054-1.93-1.742-3.825-1.675-6.115
			c0.37-12.691,4.853-18.554,17.3-22.21c3.559-1.046,6.586-2.783,7.368-6.641c1.945-9.604,2.389-19.141-2.499-28.164
			c-0.547-1.01-1.109-2.338-2.575-1.697c-1.455,0.636-0.861,1.781-0.408,2.925c2.051,5.185,2.846,10.622,2.434,16.144
			c-0.235,3.144-0.432,6.532-3.762,9.267c-0.127-3.022-1.08-5.246-1.773-7.527c-2.006-6.602-3.745-13.137,0.479-20.019
			c2.945-4.799,5.966-9.565,8.883-14.388c3.674-6.076,8.123-12.161,8.298-19.414c0.117-4.846,1.467-7.801,5.458-10.145
			c9.428-5.537,13.396-13.898,12.44-24.742c-0.745-8.455-1.829-16.907-0.702-25.42c2.401-18.132,13.913-31.221,24.933-44.479
			c2.926-3.52,7.01-6.101,10.672-8.973c1.332-1.044,2.772-2.536,4.815-1.319c-0.112,2.792-1.722,4.591-3.593,6.301
			c-3.976,3.633-7.055,7.918-9.384,12.795c-4.475,9.37-5.342,19.488-6.329,29.585c-0.169,1.723,0.536,3.282,1.654,4.579
			c1.173,1.362,2.47,2.254,4.25,0.775c1.613-1.341,1.114-2.653-0.047-3.811c-2.233-2.227-1.778-4.919-1.324-7.511
			c0.6-3.432,1.706-6.779,2.238-10.218c2.176-14.078,11.045-24.456,20.335-33.979c3.058-3.135,8.38-5.582,12.965-7.792
			c2.041-0.984,4.753-3.752,6.293-1.592c1.457,2.044-1.981,3.79-3.677,5.105c-8.177,6.336-13.66,14.919-19.406,23.216
			c-3.61,5.212-3.655,8.595-1.783,12.628c4.595-7.734,7.876-16.284,14.926-23.823c0.705,6.273,0.667,11.358-0.497,16.331
			c-1.045,4.463,0.003,6.844,5.543,6.408c-3.861-13.314,0.041-24.602,8.334-34.527c13.865-16.592,33.923-21.455,53.525-24.92
			c13.536-2.392,27.115,3.585,39.988,8.772c0.754,0.304,1.74,0.617,2.089,1.228c0.939,1.643,1.758,3.874,3.888,1.746
			c2.104-2.101,0.038-3.601-1.629-4.713c-10.209-6.81-21.679-10.302-33.724-11.102c-9.027-0.6-18.594-3.166-26.922,3.229
			c-0.469,0.36-1.348,0.139-1.91,0.431c-4.854,2.519-10.764,0.644-15.432,3.508c-10.121,6.209-21.562,8.402-32.776,11.431
			c-10.601,2.864-21.251,5.885-28.316,15.395c-1.057,1.423-2.556,1.935-4.403,1.754c-2.338-0.229-4.311,1.106-4.161,3.275
			c0.235,3.387-1.919,4.631-4.031,6.193c-5.619,4.158-10.259,9.031-11.353,16.312c-0.205,1.362-1.048,1.974-1.996,2.648
			c-4.172,2.965-6.138,7.15-7.268,12.059c-2.324,10.094-1.082,20.279-0.683,30.36c0.308,7.788-2.585,14.053-6.079,20.404
			c-1.125,2.045-2.938,3.293-5.269,3.239c-2.503-0.057-3.753-1.768-4.413-4.058c-0.412-1.426-0.913-2.852-1.585-4.17
			c-0.688-1.351-1.599-2.546-3.506-1.837c-1.757,0.654-2.5,2.088-1.765,3.539c1.289,2.545,0.934,5.191,1.096,7.797
			c0.576,9.271-3.727,13.091-12.874,11.378c-3.074-0.576-5.064,0.05-4.857,3.535c0.114,1.916-0.324,3.624-1.045,5.298
			c-1.003,2.328,0.215,4.163,1.163,6.081C499.78,164.791,501.061,165.018,502.44,164.674z"/>
		<path fill="#4539E4" d="M802.225,73.064c-4.493-3.859-9.302-2.402-14.105-1.613c-7.275,1.195-14.514,3.794-20.792-3.098
			c-3.092-3.394-6.787-1.51-9.809,0.937c-3.319,2.688-0.378,4.818,1.009,6.752c4.896,6.827,6.022,14.364,5.177,22.74
			c-14.615-3.885-10.822-16.647-13.405-26.663c-4.638,5.97-4.627,11.727-1.992,18.017c2.986,7.13,7.822,12.36,15.554,12.836
			c5.261,0.324,6.56,2.91,7.235,6.959c1.033,6.198,0.38,12.378-1.338,18.31c-3.807,13.141-1.428,24.832,6.947,35.585
			c4.182,5.369,7.834,11.147,11.065,17.162c1.197,2.229,2.052,4.527,1.571,7.154c-0.632,3.457-3.446,4.081-6.021,3.883
			c-1.386-0.106-5.44,0.507-3.478-3.739c0.554-1.199-1.016-1.977-1.906-2.635c-4.357-3.215-8.741-2.44-13.043,0.138
			c-1.206,0.723-2.891,1.085-2.789,3.079c0.148,2.895,2.864,0.294,4.027,2.263c-4.125,2.183-4.263,6.065-4.05,10.182
			c0.104,2.012-0.265,4.371-2.849,4.569c-3.787,0.291-6.356,2.731-9.248,4.598c-4.708,3.04-8.745,7.155-14.728,8.017
			c-2.596,0.374-2.348,2.82-2.065,4.875c0.336,2.442,1.941,2.857,4.006,2.483c2.442-0.443,4.641-1.903,7.234-1.727
			c1.428,0.097,2.555,0.757,3.35,1.907c0.616,0.89,0.047,1.481-0.647,2.057c-0.814,0.676-2.522,0.997-1.776,2.498
			c0.793,1.593,2.578,1.583,4.007,1.195c3.911-1.062,5.952,1.154,7.597,4.073c2.422,4.3,3.526,8.919,3.296,13.887
			c-0.084,1.826-0.62,3.143-2.193,4.156c-8.75,5.635-17.365,11.741-28.58,6.381c-0.907-0.433-1.948-0.451-2.734,0.467
			c-0.706,0.824-0.27,1.535,0.227,2.213c2.247,3.065,0.058,4.435-2.179,5.839c-4.693,2.944-9.837,4.862-15.085,6.47
			c-4.025,1.232-6.836,3.869-7.823,7.687c-1.459,5.644-1.537,11.539,0.187,17.17c1.854,6.056,2.161,12.109,0.747,18.181
			c-1.389,5.964-3.538,11.761-4.747,17.754c-1.358,6.734-4.766,12.967-4.827,19.982c-0.046,5.323-0.46,10.71,0.203,15.953
			c0.618,4.883,2.918,9.431,5.298,13.794c0.641,1.175,1.792,1.565,2.987,0.858c1.031-0.61,0.924-1.562,0.472-2.601
			c-0.53-1.216-1.081-2.479-1.275-3.774c-0.723-4.826-5.245-8.37-4.804-13.462c0.731-8.457,1.928-16.88,4.288-25.052
			c2.028-7.023,4.841-13.836,6.579-20.921c2.263-9.222,3.641-18.411-1.497-27.564c-2.98-5.309,0.431-12.779,6.015-14.158
			c5.48-1.353,10.101-4.126,14.846-6.844c5.659-3.241,11.568-5.78,18.046-6.98c6.385-1.183,11.762-4.198,16.322-8.975
			c5.73-6.002,6.493-11.185,2.042-18.49c-5.251-8.617-4.752-13.098,1.506-20.688c2.735-3.317,4.858-7.262,2.926-11.884
			c-2.05-4.905,0.365-8.358,5.714-8.024c2.486,0.155,4.978,0.408,7.463,0.373c9.389-0.133,18.332-8.939,11.192-20.085
			c-4.204-6.562-8.771-12.841-13.029-19.342c-3.337-5.095-6.594-10.152-6.626-16.821c-0.022-4.597,1.88-8.705,1.974-13.149
			c0.141-6.663,0.209-13.328,0.265-19.993c0.096-11.469,7.123-16.188,17.915-11.978c1.333,0.52,2.798,1.879,3.787-0.179
			c0.947-1.97-0.432-2.973-2.088-3.783c-6.04-2.953-11.9-2.28-17.739,0.618c-1.225,0.608-2.511,2.179-4.024,0.715
			c-2.398-2.32-2.084-5.486-2.253-8.442c-0.126-2.203,1.442-3.349,3.232-3.935c6.63-2.169,13.284-4.274,19.972-6.254
			c2.109-0.625,4.293-0.874,5.342,2.009c0.702,1.929,1.9,2.682,3.643,0.744C803.332,76.187,804.711,75.2,802.225,73.064z
			 M757.098,222.11c-0.13,1.083-0.958,1.748-2.046,1.833c-1.364,0.107-2.309-0.689-2.48-1.948c-0.218-1.61,1.19-1.661,2.329-1.908
			C756.083,220.256,757.287,220.531,757.098,222.11z M760.735,211.934c-0.766,2.625-3.573,2.612-5.647,3.4
			c-1.256,0.148-2.303-0.314-1.87-1.557c0.792-2.272,2.885-3.177,5.088-3.375C759.182,210.323,761.217,210.284,760.735,211.934z"/>
		<path fill="#4539E4" d="M732.596,361.892c0.189,3.716,0.189,3.716,4.788,9.84c4.314,5.745,1.504,20.067-4.908,23.161
			c-6.097,2.942-12.4,5.34-19.441,5.477c-15.407,0.299-30.083-3.139-44.554-7.923c-4.863-1.608-9.785-3.045-14.61-4.757
			c-9.203-3.265-18.778-5.062-28.293-6.957c-6.892-1.373-13.609-3.401-21.104-1.819c-14.274,3.013-28.814,1.105-42.438-3.037
			c-12.746-3.875-24.542-10.694-33.672-21.097c-1.057-1.204-2.284-3.883-4.276-2.168c-2.034,1.751-0.659,3.919,1.03,5.546
			c0.48,0.462,0.931,0.955,1.426,1.399c18.543,16.59,40.816,23.728,65.142,24.324c12.604,0.309,25.102-2.756,37.81,1.525
			c7.305,2.461,15.338,3.136,22.798,5.549c12.657,4.094,25.099,8.798,38.151,11.688c11.768,2.605,23.366,2.699,35.137,0.209
			c12.839-2.716,16.386-10.249,18.531-21.663C745.275,375.004,738.278,364.186,732.596,361.892z"/>
		<path fill="#4539E4" d="M723.907,43.953c8.446,2.278,16.164,5.942,23.069,11.385c2.975,2.345,6.223,4.373,9.478,6.327
			c3.393,2.037,7.323,2.608,10.246-0.22c4.871-4.712,11.073-7.732,15.476-13.033c4.41-5.309,5.916-5.229,11.497-0.752
			c2.344,1.88,4.677,3.688,8.253,2.096c-2.195-4.701-6.872-6.409-10.127-9.582c-3.369-3.285-6.46-2.806-9.324,0.693
			c-3.52,4.3-7.683,7.879-12.487,10.634c-6.959,3.991-14.359,2.886-20.437-3.452c9.981,0.354,15.735-5.225,20.837-11.933
			c1.139-1.497,2.658-3.25,0.975-4.743c-1.611-1.429-3.375,0.008-4.684,1.423c-2.259,2.443-4.501,4.903-6.813,7.295
			c-0.665,0.688-1.519,1.489-2.596,0.838c-1.156-0.699-1.38-1.823-0.865-3.049c2.124-5.054,3.887-10.308,6.51-15.09
			c2.446-4.461,10.508-5.117,12.877-1.467c0.76,1.171,0.616,3.001,2.775,2.849c0.997-0.07,1.572-0.359,1.534-1.405
			c-0.069-1.916,1.016-4.182-0.961-5.594c-3.725-2.661-7.955-3.703-12.295-1.929c-4.582,1.873-9.752,3.69-10.743,9.357
			c-0.749,4.277-1.778,8.369-3.364,12.387c-2.737,6.933-4.976,7.901-11.839,4.987c-1.968-0.836-2.927-2.657-4.327-4.047
			c-4.848-4.815-11.33-5.084-14.879-0.602C718.879,40.882,719.467,42.756,723.907,43.953z"/>
		<path fill="#4539E4" d="M547.541,323.836c5.856-8.419,11.69-16.669,14.558-26.949c2.168-7.771,3.486-15.841,6.633-23.311
			c0.822-1.95,2.33-3.82-0.061-5.008c-2.55-1.267-2.457,1.886-3.488,3.102c-0.514,0.607-0.849,1.462-1.008,2.256
			c-1.893,9.433-4.478,18.609-8.443,27.445c-4.786,10.666-9.802,20.974-19.467,28.325c-3.065,2.331-6.804,2.369-9.938,4.358
			c-6.191,3.928-13.434,5.298-20.303,7.61c-8.131,2.736-16.609,4.541-24.041,9.304c-13.912,8.915-23.407,22.021-33.513,34.558
			c-0.974,1.208-1.235,3.054-1.603,4.656c-0.163,0.711,0.022,1.679,1.361,1.932c0.494-0.427,1.181-0.887,1.697-1.492
			c1.835-2.151,3.803-4.223,5.378-6.557c6.427-9.523,14.528-17.507,22.878-25.272c10.272-9.552,23.944-11.458,36.432-15.923
			C526.806,338.511,539.555,335.318,547.541,323.836z"/>
		<path fill="#4539E4" d="M744.265,155.171c-2.532,0.329-5.328-0.884-7.6,1.237c7.062,4.386,10.307,4.046,15.703-1.549
			c1.267-1.314,2.581-2.591,3.962-3.783c1.39-1.2,2.258-2.491-0.251-3.005c-4.578-0.94-3.574-3.683-2.601-6.682
			c0.872-2.687,2.355-4.611,5.076-5.709c2.017-0.815,3.349-2.8,0.405-3.616c-4.252-1.179-2.876-3.538-2.175-6.062
			c0.742-2.67,2.229-5.243,1.058-8.557c-2.831,1.138-3.781,3.345-4.285,5.545c-0.819,3.574-2.716,4.88-6.411,5.542
			c-9.878,1.767-18.223,6.9-26.525,13.379c8.593,3.091,15.158,8.966,23.844,9.884c1.174,0.124,2.492,0.536,2.232,2.02
			C746.509,154.882,745.296,155.037,744.265,155.171z M739.647,146.829c-2.289-0.686-5.069-0.687-5.776-3.775
			c-0.212-0.926,0.199-1.658,1.138-1.848c3.103-0.626,4.937,1.202,6.449,3.513c0.335,0.512,0.453,1.166,0.637,1.664
			C741.252,147.211,740.411,147.059,739.647,146.829z M742.251,137.097c-1.463,0.063-2.238-0.106-2.559-1.046
			c-0.33-0.966,0.203-1.657,0.995-1.927c2.457-0.835,4.94-1.608,7.451-2.26c0.689-0.179,1.71-0.201,2.024,0.807
			c0.306,0.982-0.435,1.638-1.143,1.927C746.616,135.577,744.153,136.406,742.251,137.097z"/>
		<path fill="#4539E4" d="M734.204,50.629c-0.732-0.37-1.57-0.522-2.33-0.844c-9.324-3.951-18.813-7.853-26.617-14.329
			c-6.895-5.723-13.861-9.785-23.114-8.591c-1.96,0.253-3.979,0.037-5.089,0.037c-5.438-0.745-9.846-0.099-14.046,1.674
			c-1.28,0.54-3.067,1.4-2.428,3.161c0.683,1.882,2.258,1.137,3.779,0.62c10.808-3.673,21.325-1.819,30.96,3.319
			c8.162,4.353,15.907,9.552,24.057,14.003c4.239,2.315,8.621,4.315,13.419,5.084c1.313,0.21,3.38,1.028,4.013-0.499
			C737.582,52.398,735.708,51.39,734.204,50.629z"/>
		<path fill="#4539E4" d="M629.637,159.568c-1.694-1.423-3.115,0.036-4.232,1.297c-5.315,5.998-5.903,13.312-4.686,20.606
			c1.907,11.435,0.74,21.352-9.758,28.495c-3.423,2.329-6.23,5.543-6.805,10.263c0.68,5.673,4.951,9.785,7.353,14.795
			c0.362,0.754,1.494,0.55,2.173-0.119c0.9-0.887,0.421-1.68-0.056-2.645c-1.538-3.11-3.288-6.188-4.267-9.482
			c-1.086-3.654-0.736-6.982,3.377-9.302c10.518-5.934,15.115-18.15,12.29-29.928c-1.679-6.999-0.468-13.87,3.56-20.012
			C629.428,162.25,631.686,161.29,629.637,159.568z"/>
		<path fill="#4539E4" d="M505.92,279.89c0.079,2.373,1.162,4.51,3.468,4.93c3.966,0.723,6.834,3.268,10.034,5.237
			c4.391,2.702,8.705,3.539,13.609,1.269c4.05-1.875,8.365-3.167,12.504-4.861c1.416-0.58,3.831-0.982,3.114-3.119
			c-0.757-2.256-2.99-1.599-4.749-0.984c-4.849,1.698-9.681,3.447-14.506,5.214c-2.718,0.996-4.993,0.361-7.52-1.052
			c-7.555-4.224-8.707-11.215-8.544-18.772c0.049-2.28,0.584-4.542-2.529-4.771c-2.973-0.219-4.695,1.4-4.837,4.426
			c-0.093,1.994-0.018,3.995-0.018,5.993c-0.014,0-0.028,0-0.042,0C505.905,275.564,505.848,277.729,505.92,279.89z"/>
		<path fill="#4539E4" d="M763.467,111.673c0.722-1.404,1.215-3.38-0.555-4.481c-4.522-2.813-9.639-6.272-14.62-5.566
			c-15.309,2.169-27.667,9.585-35.497,24.315c3.785,0.084,5.706-1.622,7.309-3.445c6.192-7.04,14.32-10.534,23.04-13.062
			c5.862-1.699,11.454-1.506,16.682,2.028C760.954,112.225,762.358,113.83,763.467,111.673z"/>
		<path fill="#4539E4" d="M594.93,177.679c2.094-0.632,5.259-2.112,4.435-4.296c-0.902-2.391-4.066-0.774-5.688,0.226
			c-3.394,2.093-6.403,2.49-10.201,0.856c-4.112-1.77-8.537-2.638-12.861,0.185c-1.399,0.913-3.218,0.231-4.85-0.231
			c-3.903-1.104-6.367,0.446-7.711,4.218c-0.719,2.017-1.739,3.928-2.64,5.878c-2.204,4.766-3.882,9.627-3.075,15.372
			c6.652-5.819,4.581-16.176,12.085-21.438c1.528,2.829-2.133,5.517,0.805,8.001c1.416-1.566,2.78-3.145,4.22-4.653
			c3.393-3.553,8.045-5.484,12.207-3.526C586.612,180.605,590.632,178.976,594.93,177.679z"/>
		<path fill="#4539E4" d="M593.184,135.538c4.394-2.964,6.64-7.2,7.884-11.629c1.952-6.945,4.779-14.375-1.829-22.207
			c-0.419,5.962-0.703,10.737-1.103,15.502c-0.559,6.649-2.638,12.416-8.554,16.43c-4.871,3.305-8.993,7.503-10.711,13.378
			c-1.628,5.568-1.94,11.058,2.051,15.99c1.058,1.307,2.253,1.466,3.498,0.723c1.579-0.943,1.098-2.269,0.091-3.324
			c-4.681-4.908-2.314-9.887,0.022-14.666C586.525,141.661,589.546,137.991,593.184,135.538z"/>
		<path fill="#4539E4" d="M645.56,91.361c-2.033,12.271-11.124,18.164-18.827,25.049c-1.455,1.3-3.163,2.124-4.072,4.084
			c-4.287,9.243-6.046,18.243,1.783,26.649c1.13,1.213,1.702,3.79,4.115,2.066c2.531-1.808,0.786-3.448-0.576-4.915
			c-7.528-8.104-5.977-20.885,3.322-27.164c6-4.051,10.719-9.43,15.246-14.961C649.294,98.819,649.276,95.347,645.56,91.361z"/>
		<path fill="#4539E4" d="M643.84,236.924c-9.847-9.307-9.89-9.327-4.267-21.381c3.786-8.116,3.999-16.288,0.93-24.653
			c-1.029-2.804-2.868-4.368-5.805-4.711c-1.34,1.634-0.039,2.991,0.64,4.103c5.442,8.919,4.598,17.439-1.228,25.806
			c-5.424,7.788-5.326,11.174,0.297,18.794C636.932,238.305,639.955,239.064,643.84,236.924z"/>
		<path fill="#4539E4" d="M482.85,220.371c0.064-6.983,0.327-13.982-0.047-20.944c-0.305-5.678,1.581-10.293,4.764-14.761
			c2.165-3.039,5.162-5.536,6.594-9.314c-0.717-0.159-1.226-0.435-1.63-0.325c-0.751,0.205-1.468,0.588-2.153,0.978
			c-7.84,4.477-10.348,12.129-11.13,20.271c-0.853,8.885-0.693,17.863-1.133,26.792c-0.146,2.964-0.783,5.904-1.334,9.85
			C481.344,229.068,482.808,225.019,482.85,220.371z"/>
		<path fill="#4539E4" d="M550.337,169.226c-0.835,1.032-0.896,2.196,0.128,3.131c1.185,1.082,2.115,0.311,2.932-0.631
			c7.038-8.115,11.093-17.556,12.611-28.706c-0.856-4.69-1.411-9.99-4.892-14.338c-0.922-1.151-2.008-1.659-3.459-0.806
			c-1.771,1.042-0.947,2.087-0.142,3.238c5.562,7.96,5.055,16.084,0.469,24.213C555.385,159.933,553.716,165.048,550.337,169.226z"
			/>
		<path fill="#4539E4" d="M556.165,212.812c0.863,7.597-2.104,12.593-7.461,16.532c-3.207,2.358-6.242,4.954-9.318,7.486
			c-5.383,4.431-4.899,13.502,0.885,17.517c0.923,0.641,1.821,0.851,2.715,0.135c0.891-0.713,0.873-1.415,0.242-2.525
			c-4.55-8.008-3.489-12.046,4.54-16.705c4.103-2.381,7.608-5.332,10.353-9.167C561.566,221.274,561.211,218.126,556.165,212.812z"
			/>
		<path fill="#4539E4" d="M678.133,145.773L678.133,145.773L678.133,145.773c-0.531-2.099-2.27-3.241-3.774-4.465
			c-4.542-3.695-6.72-7.965-4.719-13.966c0.876-2.627,1.078-5.543,1.201-8.345c0.295-6.741,1.851-12.694,8.409-16.166
			c1.149-0.608,2.316-1.572,1.215-3.188c-0.995-1.46-2.264-2.019-3.756-0.761c-3.561,3-6.781,6.072-7.664,11.134
			c-1.103,6.324-1.923,12.712-3.2,18.968c-0.898,4.4-0.43,7.817,2.291,11.052c2.562,3.046,5.366,5.872,8.76,8.032
			C677.856,147.598,677.987,146.681,678.133,145.773z"/>
		<path fill="#4539E4" d="M707.086,94.686c1.785-1.2,3.779-2.39,4.968-4.639c-7.075-0.305-11.802,3.616-15.187,12.244
			c-3.279,8.36,0.273,22.793,7.074,28.742c2.159,1.032,2.856,2.899,2.944,5.117c2.547,1.702,3.511,0.89,3.14-2.041
			c-0.688-1.094-1.118-2.603-2.105-3.216c-8.532-5.307-8.106-13.823-7.956-22.126C700.067,103.055,702.028,98.088,707.086,94.686z"
			/>
		<path fill="#4539E4" d="M631.402,460.572c-1.382,0.247-3.225,1.212-4.063-0.372c-0.728-1.376,0.689-2.746,1.448-4.014
			c0.341-0.57,0.806-1.156,0.886-1.777c0.261-2.021-0.791-3.134-2.761-3.312c-1.911-0.173-3.716,0.647-3.411,2.626
			c0.932,6.054-1.857,11.103-3.94,16.33c-1.66,4.168-0.686,5.851,4.096,5.813c4.856,0.716,7.663-3.202,10.429-6.225
			c1.761-1.925,1.284-5.353,0.223-8.109C633.738,460.05,632.62,460.354,631.402,460.572z M632.117,467.063
			c-1.283,2.903-4.466,4.753-7.443,6.591c-1.253,0.774-2.057-0.995-1.694-2.105c1.127-3.446,3.46-5.908,6.921-7.14
			C631.65,463.786,632.353,464.622,632.117,467.063z"/>
		<path fill="#4539E4" d="M586.121,237.981c-7.412,0.008-9.825,5.33-13.079,9.904c-5.221,7.339-3.16,15.175,5.231,18.13
			c2.519,0.887,6.45,2.369,7.381-0.366c0.972-2.857-3.195-2.842-5.421-3.581c-6.309-2.095-7.83-7.497-3.536-12.738
			C579.709,245.655,582.768,242.016,586.121,237.981z"/>
		<path fill="#4539E4" d="M619.236,152.121c0.908-0.485,2.053-0.902,1.941-1.977c-0.169-1.626-1.773-1.013-3.298-1.507
			c-3.051,1.192-6.007,2.929-8.174,6.13c-4.95,7.313-6.474,15.011-3.513,23.485c0.607,1.738,0.714,3.992,3.216,3.539
			c2.907-0.526,1.433-2.764,1.218-4.407c-0.085-0.651-0.322-1.289-0.536-1.917C606.781,165.73,610.198,156.947,619.236,152.121z"/>
		<path fill="#4539E4" d="M664.621,186.564c2.173-1.364,3.041-3.685,1.638-6.359c-10.153,7.093-11.215,9.92-8.49,22.324
			c1.327,6.04,8.647,8.217,14.434,3.599c-4.949,0.925-9.607,0.745-10.435-4.365C660.94,196.651,658.098,190.659,664.621,186.564z"/>
		<path fill="#4539E4" d="M150.986,467.198c-1.271-1.268-3.026-0.921-4.725-0.673c-3.078,0.451-4.905,2.284-6.389,4.845
			c-4.55,7.847-4.058,8.847,4.967,9.523c5.024,0.376,6.431-1.274,5.119-6.018c-0.356-1.289-0.594-2.506,0.045-3.848
			C150.57,469.834,152.539,468.748,150.986,467.198z M143.474,475.778c-2.078,0.163-1.922-1.511-2.104-2.324
			c-0.721-3.221,2.589-3.063,4.138-4.249c1.143-0.875,2.171,0.396,2.091,1.71C147.434,473.643,144.672,474.166,143.474,475.778z"/>
		<path fill="#4539E4" d="M688.154,67.03c-9.725-5.981-13.756-18.502-25.923-21.806C663.113,50.398,683.329,68.002,688.154,67.03z"
			/>
		<path fill="#4539E4" d="M596.58,247.099c1.504-1.267,3.2-2.306,4.817-3.438c2.6-1.819,4.755-3.935,5.215-7.877
			c-5.553,2.236-9.168,5.704-12.661,9.576c-6.958,7.711-6.984,8.686,1.611,14.678c1.599,1.114,3.532,2.141,4.667-0.012
			c0.982-1.863-1.372-2.201-2.507-2.857C592.728,254.284,592.263,250.737,596.58,247.099z"/>
		<path fill="#4539E4" d="M529.461,226.138c-0.928,0-1.618-0.171-2.178,0.026c-5.589,1.972-13.928,17.442-12.474,23.052
			c0.083,0.322,0.084,0.69,0.246,0.963c0.844,1.424,2.203,1.284,3.511,0.992c1.341-0.299,1.206-1.229,0.883-2.304
			c-1.306-4.343,0.991-7.635,3.117-11.083C524.861,234.063,528.516,231.108,529.461,226.138z"/>
		<path fill="#4539E4" d="M761.413,181.667c0.535-0.953,0.471-2.034-0.376-2.717c-1.031-0.831-1.744,0.299-2.473,0.778
			c-3.158,2.074-5.181,5.103-6.449,8.551c-1.142,3.103,3.038,8.629,6.516,8.56c0.2-0.1,0.822-0.201,0.995-0.535
			c0.638-1.234,0.001-2.543-0.86-3.089c-4.545-2.881-1.786-5.253,0.296-7.818C759.981,184.264,760.693,182.949,761.413,181.667z"/>
		<path fill="#4539E4" d="M650.144,136.518c-1.167-1.181-3.274-0.435-2.739,0.989c2.499,6.649-0.102,12.208-2.902,17.886
			c-0.599,1.214,0.381,2.232,1.52,2.74c1.211,0.54,1.891-0.289,2.216-1.276c1.547-4.694,3.031-9.408,4.648-14.461
			C652.814,140.288,651.776,138.17,650.144,136.518z"/>
		<path fill="#4539E4" d="M553.686,266.993c-0.908,0.115-1.896,1.016-1.508,1.595c2.447,3.654,0.505,9.16,5.551,12.292
			c1.062-4.701,0.481-8.635-1.761-12.357C555.408,267.596,554.841,266.847,553.686,266.993z"/>
		<path fill="#4539E4" d="M649.839,179.446c-1.605,5.007-4.377,10.069,1.231,15.815C650.523,189.28,652.078,184.275,649.839,179.446
			z"/>
		<path fill="#4539E4" d="M676.895,148.067c1.204,1.516,2.987,4.014,4.499,2.573c2.112-2.011-1.811-2.254-2.332-3.789
			c-0.141-0.417-0.611-0.722-0.93-1.078C678.659,147.043,678.81,148.112,676.895,148.067z"/>
		<path fill="#4539E4" d="M709.795,137.873c-1.355,0.812-1.909-1.117-2.911-1.723c0,0.01,0.002,0.02,0.002,0.03l0,0l0,0l0,0
			c-0.017-0.015-0.03-0.031-0.046-0.046c0.505,1.603,1.382,2.847,3.27,3.405c0.84-1.916,1.49-3.664-0.085-5.43
			C710.677,135.426,711.151,137.061,709.795,137.873z"/>
		<path fill="#4539E4" d="M706.867,136.138c-0.865-1.765-1.568-3.622-2.926-5.105c0.82,1.784,1.369,3.723,2.9,5.101
			c-0.002-0.005-0.004-0.01-0.006-0.016C706.846,136.125,706.856,136.13,706.867,136.138z"/>
		<path fill="#4539E4" d="M706.835,136.118l0.052,0.062l0,0c-0.007-0.014-0.013-0.028-0.02-0.041
			C706.856,136.132,706.846,136.124,706.835,136.118z"/>
		<path fill="#4539E4" d="M706.867,136.138c0.006,0.003,0.012,0.008,0.018,0.012c0,0,0,0,0-0.001
			C706.878,136.145,706.873,136.142,706.867,136.138L706.867,136.138z"/>
		<path fill="#4539E4" d="M189.753,126.671c-5.337-0.366-6.266,5.418-8.503,9.875c-2.162,4.306-0.518,7.299,3.277,9.515
			c4.513,2.636,9.363,1.156,13.83-4.123c2.39-2.824,3.878-5.979,2.22-9.572C198.829,128.579,195.532,126.824,189.753,126.671z"/>
	</g>
</g>
</svg>
