<?xml version="1.0" encoding="utf-8"?>
<!-- Generator: Adobe Illustrator 17.0.0, SVG Export Plug-In . SVG Version: 6.00 Build 0)  -->
<!DOCTYPE svg PUBLIC "-//W3C//DTD SVG 1.1//EN" "http://www.w3.org/Graphics/SVG/1.1/DTD/svg11.dtd">
<svg version="1.1" id="Layer_1" xmlns="http://www.w3.org/2000/svg" xmlns:xlink="http://www.w3.org/1999/xlink" x="0px" y="0px"
	 width="803.6px" height="486px" viewBox="0 0 803.6 486" enable-background="new 0 0 803.6 486" xml:space="preserve">
<g id="Layer_1_1_">
	<g>
		<path fill="#010101" d="M557.919,113.175c-8.669-0.243-17.539-1.938-26.138,1.526c-8.81,3.55-9.977,2.979-15.264-5.05
			c-0.364-0.553-0.701-1.131-0.994-1.725c-4.545-9.208-10.834-17.066-18.255-24.121c-4.464-4.244-8.834-8.62-12.907-13.237
			c-13.62-15.435-31.333-21.555-51.2-23.006c-2.197-0.16-4.86-0.609-4.697-3.387c0.377-6.428-4.384-7.857-8.76-8.955
			c-11.405-2.863-22.374,0.809-32.999,4.03c-6.319,1.916-12.453,5.349-18.637,7.818c-15.118,6.037-27.85,14.614-37.334,27.831
			c-5.695,7.936-12.605,15.237-16.086,24.455c-6.358,16.838-12.407,33.8-18.356,50.797c-6.683,19.096-14.21,37.883-27.743,53.57
			c-11.972,13.878-21.081,29.568-27.901,46.577c-2.745,6.846-3.109,13.791-1.364,21.016c3.065,12.689,11.046,21.636,22.929,25.294
			c7.762,2.39,16.861,1.91,24.95-1.14c7.286-2.747,13.597-7.463,20.301-11.393c9.032-5.295,14.979-12.472,16.744-22.881
			c0.305-1.795,0.538-3.518,2.628-4.162c1.496,3.048,2.844,5.876,4.262,8.667c2.033,4.003,5.883,7.8,0.761,12.354
			c-0.848,0.754-0.908,2.459-1.209,3.754c-1.648,7.092-3.768,14.112-5.796,21.044c-3.498,11.958-8.388,23.518-10.645,35.873
			c-0.389,2.127-0.77,4.255-1.149,6.383c-0.303,1.697,0.258,3,1.936,3.543c1.904,0.616,2.159-0.931,2.569-2.183
			c1.085-3.313,3.52-4.203,6.685-3.657c5.565,0.959,11.1,2.11,16.686,2.912c4.248,0.61,5.155,3.053,4.342,6.719
			c-0.432,1.946-1.235,3.837-1.438,5.798c-0.173,1.674,0.364,3.598,2.468,3.684c1.825,0.075,1.461-1.851,1.764-2.998
			c0.721-2.728,1.359-5.481,1.942-8.242c0.504-2.389,2.522-3.895,4.278-3.299c5.514,1.871,11.541,1.306,16.86,3.876
			c1.97,0.952,3.151,2.447,1.845,4.315c-1.971,2.819-1.138,5.794-1.091,8.706c0.021,1.323-1.046,3.765,1.9,3.619
			c2.542-0.126,2.654-2.09,2.646-4.002c-0.006-1.499-0.1-2.998-0.099-4.497c0.002-2.186-0.064-4.523,2.316-5.625
			c5.803-2.686,11.45-0.005,17.082,0.879c3.72,0.584,2.282,4.178,2.835,6.596c0.463,2.025,1.935,3.318,4.02,2.846
			c2.067-0.467,1.592-2.165,0.995-3.626c-1.548-3.786,0.613-4.277,3.623-4.236c3.806,0.051,7.564,2.042,10.923,1.926
			c5.969-0.206,8.218,1.876,8.821,7.322c0.247,2.228,1.652,4.694,4.154,3.815c2.143-0.753,0.888-3.183,0.14-4.771
			c-1.832-3.885,0.476-4.333,3.346-3.976c3.946,0.491,7.853,1.286,11.783,1.907c1.335,0.211,2.96,0.394,3.309-1.305
			c0.413-2.014-1.38-2.417-2.826-2.724c-2.767-0.588-5.549-1.139-8.351-1.516c-7.282-0.981-7.288-0.941-7.577-8.043
			c-1.755,0.056-2.442,1.624-3.433,2.592c-3.243,3.171-7.133,3.558-11.119,2.465c-2.122-0.582-4.16-0.966-6.333-0.996
			c-3.204-0.044-5.865-1.334-5.673-4.853c0.216-3.953-0.738-10.003,4.19-10.565c6.803-0.775,14.397-1.632,20.367,3.823
			c0.826,0.755,1.52,1.933,2.874,0.81c5.077-4.212,10.198-0.538,15.199,0.147c3.854,0.528,5.789,3.357,5.751,7.537
			c-0.036,3.896-0.098,7.921,2.682,11.711c1.249-1.574,1.505-2.834,1.511-4.216c0.018-3.933-0.735-8.043,2.937-11.097
			c0.548-0.456,0.565-1.952,0.351-2.854c-1.147-4.832-0.335-9.575-0.178-14.421c0.312-9.62,1.873-19.016,3.059-28.48
			c1.053-8.405,4.953-15.713,11.538-20.898c13.422-10.565,24.93-23.027,36.764-35.215c10.702-11.022,16.994-24.736,21.791-38.676
			c6.019-17.488,6.103-35.984,2.713-54.311c-1.354-7.32-0.425-8.425,6.702-10.566c8.271-2.484,16.688-4.874,21.476-13.212
			C567.301,122.054,564.195,113.352,557.919,113.175z M305.133,279.538c-7.373,4.79-14.547,9.888-23.329,12.047
			c-22.707,5.581-38.926-9.607-38.93-29.623c-0.323-4.461,1.299-8.972,3.546-13.306c4.672-9.011,9.858-17.686,15.943-25.848
			c21.763-29.19,37.466-61.391,47.801-96.294c6.856-23.155,18.169-43.826,35.339-61.078c1.652-1.66,3.19-3.424,5.263-4.536
			c18.496-9.929,37.382-18.862,58.326-22.42c3.51-0.596,6.895,0.393,10.273,1.106c2.536,0.535,4.078,2.08,4.089,4.876
			c0.012,3.164-2.331,3.825-4.648,4.22c-14.779,2.522-28.68,7.862-41.125,15.837c-37.563,24.071-60.446,57.666-64.248,103.002
			c-2.231,26.606,0.372,52.888,5.359,78.976C321.845,262.464,318.643,270.76,305.133,279.538z M330.336,301.65
			c2.223-7.097,2.537-14.779,6.753-21.279c1.746-2.691,2.626-1.968,4.138,0.183c4.003,5.692,9.465,9.92,15.488,13.114
			c3.955,2.097,3.912,4.269,2.94,8.023c-1.043,4.031-3.035,5.669-6.984,5.328c-0.497-0.043-0.993-0.1-1.866-0.188
			c-6.418,0.631-12.417-3.615-19.194-3.16C330.023,303.778,330.079,302.471,330.336,301.65z M349.582,332.615
			c-0.195,8.467-1.935,9.967-9.944,8.707c-4.428-0.696-8.858-1.402-13.26-2.244c-4.925-0.942-6.088-2.829-5.016-7.732
			c2.088-9.554,2.126-9.559,11.368-7.145c4.176,1.091,8.371,2.109,12.572,3.101C348.276,328.005,350.133,329.486,349.582,332.615z
			 M348.558,323.744c-6.466-1.208-13.416-2.794-20.036-5.341c-4.83-1.859-2.047-5.624-1.51-8.887
			c0.622-3.779,2.978-2.05,4.876-1.956c6.763,0.335,13.091,3.284,19.924,3.277c3.06-0.003,3.918,1.84,3.499,4.658
			C354.466,321.172,352.638,323.661,348.558,323.744z M367.84,345.952c-3.763-0.464-7.49-0.907-11.229-1.697
			c-4.876-1.03-3.979-4.27-3.375-7.204c0.626-3.039,1.019-6.815,4.746-6.632c6.05,1.02,11.108,1.849,16.157,2.734
			c2.258,0.396,3.322,1.625,3.302,4.115C377.384,344.201,374.554,346.78,367.84,345.952z M371.869,328.536
			c-3.242-0.648-6.571-0.852-9.827-1.443c-3.815-0.693-5.5-2.833-4.064-6.771c0.508-1.394,1.029-2.787,1.46-4.205
			c1.023-3.37,2.931-4.724,6.617-3.751c3.344,0.882,6.833,1.356,10.288,1.633c3.494,0.28,5.487,1.345,4.32,4.603
			c-0.207,1.973-0.257,3.309-0.498,4.609C379.005,329.449,378.292,329.82,371.869,328.536z M362.462,305.4
			c0.876-2.67,1.056-6.543,4.892-6.66c5.175-0.158,10.126,1.679,15,3.233c2.692,0.858,1.436,3.437,0.851,5.178
			c-0.557,1.656-0.557,4.339-3.031,3.761c-5.364-0.922-10.021-2.191-14.917-2.144C363.601,308.784,361.832,307.322,362.462,305.4z
			 M398.935,349.789c-1.766,2.486-17.914-0.882-19.2-3.7c-2.434-5.333,2.782-11.124,11.479-11.079
			c0.333,0.033,2.214-0.034,3.941,0.45c2.207,0.617,5.425-0.391,6.183,2.978C402.259,342.531,401.267,346.506,398.935,349.789z
			 M404.522,325.371c-0.515,3.384-1.014,6.358-5.389,6.251c-1.66-0.041-3.321-0.007-4.982-0.007
			c0.001-0.091,0.001-0.182,0.002-0.273c-0.664-0.044-1.327-0.096-1.991-0.13c-8.835-0.444-10.458-3.114-7.032-11.277
			c1.07-2.549,2.703-3.681,5.419-3.112c3.408,0.714,6.817,1.428,10.213,2.197C404.228,319.805,405.035,322.001,404.522,325.371z
			 M403.35,315.736c-3.883-0.873-7.768-1.733-11.646-2.625c-2.181-0.502-4.491-1.18-4.106-4.015c0.376-2.77,0.904-6.463,4.147-6.692
			c5.619-0.397,11.159-1.966,16.862-1.297c3.082,0.362,4.007,1.844,2.756,4.679c-1.134,2.569-2.263,5.141-3.416,7.701
			C407.04,315.495,405.396,315.945,403.35,315.736z M431.356,327.916c-0.785,3.314-0.913,7.529-5.845,7.177
			c-4.288-0.307-8.557-1.151-12.777-2.03c-3.194-0.665-5.666-2.349-4.786-6.207c0.783-3.434,2.153-6.436,6.135-5.839
			c4.611,0.403,8.76,0.663,12.882,1.157C430.252,322.569,432.213,324.299,431.356,327.916z M424.847,318.074
			c-1.164,0-2.361,0.177-3.488-0.028c-10.874-1.977-11.048-1.682-5.746-11.82c2.742-5.243,8.399-7.105,14.139-6.136
			c3.901,0.659,5.495,2.797,5.09,6.513c-0.323,2.968-0.765,5.942-1.449,8.845C432.744,318.207,431.493,318.515,424.847,318.074z
			 M459.17,298.552c-0.357,11.64-2.835,23.035-4.121,34.571c-0.699,6.27-2.827,7.064-8.83,5.209
			c-2.528-0.781-5.193-1.104-7.775-1.724c-3.849-0.923-4.952-3.279-3.962-7.095c1.026-3.953,2.825-6.337,7.337-5.229
			c2.168,0.532,4.282,2.081,7.002,0.302c-1.186-2.988-3.671-3.276-6.188-3.67c-3.878-0.608-6.029-2.496-4.952-6.853
			c0.595-2.404,0.601-4.958,1.236-7.348c1.751-6.589,12.647-12.623,19.159-10.88C459.941,296.333,459.201,297.544,459.17,298.552z
			 M486.314,262.47c-2.097,2.12-4.298,4.14-6.489,6.165c-2.528,2.338-5.011,2.351-7.299-0.333
			c-3.55-4.163-7.082-8.342-10.579-12.549c-1.845-2.219-2.678-4.682-0.772-7.252c2.149-2.898,4.904-5.666,8.719-4.36
			c7.443,2.548,12.762,8.096,17.606,14.073c0.3,0.37,0.433,0.874,0.722,1.482C487.614,260.598,487.103,261.672,486.314,262.47z
			 M521.579,221.344c-7.15,12.847-17.132,23.239-27.249,33.613c-1.94,1.989-2.784,0.603-3.924-0.577
			c-4.276-4.429-8.416-9.011-14.097-11.763c-2.701-1.309-5.392-2.612-8.474-2.696c-5.028-0.137-8.547,2.485-11.097,6.46
			c-2.388,3.723-1.184,7.33,0.993,10.747c3.42,5.369,7.958,9.817,12.109,14.575c1.75,2.006,1.791,3.369,0.105,5.472
			c-9.964,12.421-22.467,19.964-38.726,18.866c-10.564-0.713-20.913,0.513-31.348,1.26c-11.933,0.854-23.531-0.873-34.907-4.552
			c-12.224-3.953-19.729-13.232-26.131-23.431c-16.112-25.665-20.513-54.361-20.922-83.988c-0.257-15.253,1.741-30.181,5.663-44.91
			c6.099-22.906,19.204-41.026,37.475-55.691c6.488-5.207,13.105-10.254,19.571-15.487c11.206-9.071,25.268-10.474,38.378-14.416
			c8.756-2.633,17.495-2.048,26.576-0.972c14.218,1.685,24.397,9.909,34.407,18.576c12.139,10.511,21.863,23.186,31.191,36.232
			c5.433,7.599,8.551,16.448,14.154,23.899c2.08,2.767,2.802,6.227,0.899,9.408c-1.453,2.428-0.409,3.441,1.394,4.805
			c3.502,2.649,5.464,6.391,5.653,10.707C534.243,179.64,532.726,201.313,521.579,221.344z M556.753,127.741
			c-5.422,5.246-11.917,8.529-19.386,9.395c-5.448,0.631-12.948-9.439-11.063-14.425c0.618-1.635,2.182-1.994,3.583-2.406
			c2.706-0.795,5.429-1.619,8.204-2.062c2.614-0.418,5.304-0.362,7.96-0.514c0.003,0.058,0.005,0.115,0.008,0.173
			c2.333,0,4.674-0.125,6.996,0.035c2.275,0.157,4.237,1.187,5.141,3.393C559.174,123.714,558.578,125.975,556.753,127.741z"/>
		<path fill="#010101" d="M389.207,440.182c-1.271-1.268-3.026-0.921-4.725-0.673c-3.078,0.451-4.905,2.284-6.389,4.845
			c-4.55,7.847-4.058,8.847,4.967,9.523c5.024,0.376,6.431-1.274,5.119-6.018c-0.356-1.289-0.594-2.506,0.045-3.848
			C388.791,442.818,390.76,441.732,389.207,440.182z M381.695,448.762c-2.078,0.163-1.922-1.511-2.104-2.324
			c-0.721-3.221,2.589-3.063,4.138-4.249c1.143-0.875,2.171,0.396,2.091,1.71C385.655,446.627,382.893,447.15,381.695,448.762z"/>
		<path fill="#010101" d="M427.974,99.655c-5.337-0.366-6.266,5.418-8.503,9.875c-2.162,4.306-0.518,7.299,3.277,9.515
			c4.513,2.636,9.363,1.156,13.83-4.123c2.39-2.824,3.878-5.979,2.22-9.572C437.05,101.563,433.753,99.808,427.974,99.655z"/>
	</g>
</g>
</svg>
