<?xml version="1.0" encoding="utf-8"?>
<!-- Generator: Adobe Illustrator 17.0.0, SVG Export Plug-In . SVG Version: 6.00 Build 0)  -->
<!DOCTYPE svg PUBLIC "-//W3C//DTD SVG 1.1//EN" "http://www.w3.org/Graphics/SVG/1.1/DTD/svg11.dtd">
<svg version="1.1" id="Layer_1" xmlns="http://www.w3.org/2000/svg" xmlns:xlink="http://www.w3.org/1999/xlink" x="0px" y="0px"
	 width="803.6px" height="486px" viewBox="0 0 803.6 486" enable-background="new 0 0 803.6 486" xml:space="preserve">
<g>
	<path d="M217.229,388.561c-2.78-3.791-2.718-7.815-2.682-11.711c0.038-4.18-1.897-7.009-5.751-7.537
		c-5.001-0.685-10.122-4.359-15.199-0.147c-1.354,1.124-2.048-0.055-2.874-0.81c-5.97-5.455-13.564-4.598-20.367-3.823
		c-4.928,0.562-3.974,6.612-4.19,10.565c-0.193,3.519,2.469,4.809,5.673,4.853c2.173,0.03,4.211,0.414,6.333,0.996
		c3.985,1.093,7.876,0.705,11.119-2.465c0.991-0.969,1.678-2.537,3.433-2.592c0.29,7.102,0.295,7.061,7.577,8.043
		c2.802,0.378,5.584,0.928,8.351,1.516c1.446,0.307,3.239,0.71,2.826,2.724c-0.348,1.699-1.974,1.516-3.309,1.305
		c-3.93-0.621-7.838-1.416-11.783-1.907c-2.87-0.357-5.178,0.09-3.346,3.976c0.749,1.588,2.004,4.018-0.14,4.771
		c-2.502,0.879-3.907-1.587-4.154-3.815c-0.602-5.445-2.852-7.527-8.821-7.322c-3.359,0.116-7.117-1.875-10.923-1.926
		c-3.01-0.041-5.171,0.45-3.623,4.236c0.597,1.46,1.073,3.159-0.995,3.626c-2.085,0.471-3.557-0.822-4.02-2.846
		c-0.553-2.417,0.885-6.012-2.835-6.596c-5.632-0.884-11.279-3.565-17.082-0.879c-2.38,1.102-2.314,3.439-2.316,5.625
		c-0.001,1.499,0.093,2.998,0.099,4.497c0.008,1.912-0.104,3.876-2.646,4.002c-2.946,0.146-1.879-2.296-1.9-3.619
		c-0.047-2.912-0.88-5.887,1.091-8.706c1.306-1.869,0.125-3.363-1.845-4.315c-5.319-2.57-11.346-2.005-16.86-3.876
		c-1.756-0.596-3.774,0.911-4.278,3.299c-0.583,2.761-1.221,5.514-1.942,8.242c-0.303,1.147,0.061,3.072-1.764,2.998
		c-2.104-0.086-2.641-2.01-2.468-3.684c0.203-1.961,1.006-3.852,1.438-5.798c0.813-3.666-0.094-6.109-4.342-6.719
		c-5.586-0.802-11.122-1.953-16.686-2.912c-3.164-0.545-5.6,0.344-6.685,3.657c-0.41,1.252-0.666,2.799-2.569,2.183
		c-1.678-0.543-2.239-1.845-1.936-3.543c0.38-2.128,0.761-4.256,1.149-6.383c2.257-12.355,7.147-23.915,10.645-35.873
		c2.028-6.932,4.148-13.952,5.796-21.044c0.301-1.294,0.361-3,1.209-3.754c5.123-4.554,1.272-8.352-0.761-12.354
		c-1.418-2.792-2.766-5.619-4.262-8.667c-2.089,0.644-2.323,2.367-2.628,4.162c-1.766,10.409-7.712,17.585-16.744,22.881
		c-6.703,3.93-13.014,8.646-20.301,11.393c-8.089,3.049-17.187,3.529-24.95,1.14C12.11,319.966,4.13,311.02,1.064,298.33
		c-1.745-7.225-1.381-14.17,1.364-21.016c6.82-17.009,15.929-32.699,27.901-46.577c13.532-15.687,21.06-34.474,27.743-53.57
		c5.949-16.997,11.998-33.958,18.356-50.796c3.481-9.218,10.391-16.519,16.086-24.455c9.483-13.216,22.216-21.794,37.334-27.831
		c6.184-2.469,12.318-5.902,18.637-7.818c10.625-3.221,21.594-6.893,32.999-4.03c4.376,1.098,9.137,2.527,8.76,8.955
		c-0.163,2.778,2.5,3.227,4.697,3.387c19.867,1.451,37.58,7.57,51.2,23.006c4.073,4.616,8.443,8.993,12.907,13.236
		c7.421,7.055,13.71,14.914,18.255,24.121c0.293,0.594,0.63,1.171,0.994,1.725c5.287,8.029,6.454,8.6,15.264,5.05
		c8.599-3.465,17.469-1.77,26.138-1.526c6.275,0.176,9.381,8.878,6.196,14.424c-4.788,8.338-13.205,10.727-21.476,13.212
		c-7.128,2.141-8.056,3.246-6.702,10.566c3.39,18.327,3.306,36.822-2.713,54.311c-4.797,13.94-11.089,27.654-21.791,38.676
		c-11.834,12.187-23.342,24.649-36.764,35.215c-6.586,5.184-10.486,12.493-11.538,20.898c-1.185,9.464-2.746,18.86-3.059,28.48
		c-0.157,4.846-0.969,9.589,0.178,14.421c0.214,0.902,0.197,2.399-0.351,2.854c-3.672,3.054-2.919,7.164-2.937,11.097
		C218.734,385.726,218.478,386.986,217.229,388.561z"/>
	<path d="M604.968,69.037c-5.54,0.436-6.588-1.946-5.543-6.408c1.165-4.973,1.202-10.058,0.497-16.331
		c-7.05,7.539-10.331,16.09-14.926,23.823c-1.872-4.033-1.827-7.415,1.783-12.628c5.746-8.298,11.229-16.88,19.406-23.216
		c1.696-1.315,5.134-3.061,3.677-5.105c-1.54-2.16-4.252,0.608-6.293,1.592c-4.585,2.211-9.907,4.658-12.965,7.792
		c-9.29,9.522-18.159,19.9-20.335,33.979c-0.531,3.439-1.638,6.786-2.238,10.218c-0.453,2.592-0.909,5.284,1.324,7.511
		c1.16,1.157,1.66,2.47,0.047,3.811c-1.78,1.479-3.077,0.587-4.25-0.775c-1.118-1.298-1.823-2.856-1.654-4.579
		c0.987-10.098,1.854-20.216,6.329-29.585c2.329-4.877,5.408-9.162,9.384-12.795c1.871-1.709,3.481-3.509,3.593-6.301
		c-2.043-1.218-3.483,0.274-4.815,1.319c-3.662,2.872-7.746,5.453-10.672,8.973c-11.02,13.258-22.532,26.347-24.933,44.479
		c-1.127,8.513-0.043,16.965,0.702,25.42c0.955,10.845-3.013,19.205-12.44,24.742c-3.991,2.344-5.341,5.299-5.458,10.145
		c-0.175,7.253-4.624,13.338-8.298,19.414c-2.917,4.823-5.938,9.589-8.883,14.388c-4.224,6.883-2.486,13.417-0.479,20.019
		c0.693,2.281,1.646,4.505,1.773,7.527c3.33-2.736,3.527-6.123,3.762-9.267c0.412-5.521-0.383-10.959-2.434-16.144
		c-0.452-1.144-1.047-2.289,0.408-2.925c1.466-0.641,2.028,0.687,2.575,1.697c4.888,9.023,4.444,18.559,2.499,28.164
		c-0.781,3.858-3.809,5.595-7.368,6.641c-12.446,3.657-16.93,9.52-17.3,22.21c-0.067,2.291,0.621,4.185,1.675,6.115
		c0.628,1.15,0.237,2.411-0.981,2.925c-1.207,0.509-2.198-0.135-2.882-1.277c-3.594-6.009-2.794-21.044,1.479-26.33
		c1.549-1.916,3.905-2.422,6.108-3.152c7.943-2.63,9.974-6.561,7.536-14.377c-1.529-4.902-3.581-9.7-3.153-15.03
		c0.081-1.004-0.229-2.117-1.178-2.611c-1.188-0.618-1.809,0.564-2.356,1.253c-4.085,5.136-9.319,9.961-4.919,17.535
		c0.702,1.208,0.631,2.731-0.916,3.413c-1.414,0.624-2.051-0.577-2.604-1.594c-3.383-6.211-3.254-13.325,1.67-18.064
		c9.334-8.983,15.362-20.452,23.745-30.112c1.961-2.26,3.818-4.623,5.557-7.058c1.552-2.174,2.056-4.499,0.204-6.884
		c-2.121-2.731-4.028-0.897-6.06,0.123c-2.371,1.191-4.84,2.188-7.207,3.387c-2.746,1.391-4.492,3.486-3.856,6.788
		c0.226,1.174,0.828,2.359-0.866,2.781c-1.379,0.344-2.66,0.117-3.384-1.35c-0.948-1.919-2.166-3.754-1.163-6.081
		c0.721-1.673,1.158-3.381,1.045-5.298c-0.207-3.486,1.784-4.111,4.857-3.535c9.147,1.713,13.45-2.107,12.874-11.378
		c-0.162-2.605,0.193-5.252-1.096-7.797c-0.735-1.451,0.008-2.885,1.765-3.539c1.907-0.709,2.818,0.486,3.506,1.837
		c0.672,1.319,1.173,2.744,1.585,4.17c0.661,2.289,1.911,4.001,4.413,4.058c2.331,0.053,4.144-1.194,5.269-3.239
		c3.494-6.351,6.387-12.617,6.079-20.404c-0.399-10.081-1.641-20.266,0.683-30.36c1.13-4.909,3.096-9.093,7.268-12.059
		c0.948-0.674,1.791-1.286,1.996-2.648c1.093-7.282,5.734-12.155,11.353-16.312c2.112-1.562,4.266-2.806,4.031-6.193
		c-0.151-2.169,1.823-3.504,4.161-3.275c1.846,0.181,3.345-0.331,4.403-1.754c7.066-9.51,17.715-12.531,28.316-15.395
		c11.214-3.029,22.654-5.223,32.776-11.431c4.668-2.863,10.578-0.989,15.432-3.508c0.562-0.292,1.441-0.071,1.91-0.431
		c8.328-6.395,17.894-3.829,26.922-3.229c12.045,0.8,23.515,4.292,33.724,11.102c1.667,1.112,3.734,2.612,1.629,4.713
		c-2.131,2.128-2.949-0.103-3.888-1.746c-0.349-0.611-1.335-0.924-2.089-1.228c-12.874-5.187-26.453-11.164-39.988-8.772
		c-19.602,3.464-39.66,8.328-53.525,24.92C605.008,44.436,601.106,55.724,604.968,69.037z"/>
	<path d="M766.133,191.129c-1.162-1.969-3.878,0.632-4.027-2.263c-0.102-1.994,1.582-2.356,2.789-3.079
		c4.302-2.578,8.686-3.354,13.043-0.138c0.891,0.658,2.461,1.436,1.906,2.635c-1.963,4.246,2.092,3.632,3.478,3.739
		c2.574,0.198,5.388-0.426,6.021-3.883c0.48-2.626-0.374-4.925-1.571-7.153c-3.231-6.015-6.884-11.792-11.065-17.162
		c-8.375-10.753-10.754-22.444-6.947-35.585c1.718-5.932,2.372-12.111,1.338-18.31c-0.675-4.048-1.974-6.635-7.235-6.959
		c-7.732-0.476-12.568-5.707-15.554-12.836c-2.635-6.291-2.646-12.048,1.992-18.017c2.582,10.016-1.21,22.779,13.405,26.663
		c0.845-8.376-0.281-15.913-5.177-22.74c-1.387-1.934-4.328-4.064-1.009-6.752c3.022-2.447,6.717-4.331,9.809-0.937
		c6.278,6.892,13.517,4.293,20.792,3.098c4.803-0.789,9.612-2.246,14.105,1.613c2.486,2.135,1.107,3.123-0.279,4.664
		c-1.743,1.937-2.942,1.184-3.643-0.744c-1.048-2.882-3.233-2.633-5.342-2.009c-6.688,1.981-13.342,4.085-19.972,6.254
		c-1.79,0.586-3.358,1.732-3.232,3.935c0.169,2.956-0.145,6.122,2.253,8.442c1.513,1.464,2.799-0.108,4.024-0.715
		c5.84-2.897,11.699-3.571,17.739-0.618c1.657,0.81,3.036,1.813,2.088,3.783c-0.989,2.058-2.454,0.699-3.787,0.179
		c-10.792-4.21-17.819,0.509-17.915,11.978c-0.056,6.665-0.123,13.33-0.265,19.993c-0.094,4.444-1.996,8.551-1.974,13.149
		c0.032,6.669,3.289,11.725,6.626,16.821c4.258,6.501,8.825,12.78,13.029,19.342c7.141,11.146-1.803,19.953-11.192,20.085
		c-2.486,0.035-4.977-0.218-7.463-0.373c-5.349-0.333-7.764,3.119-5.714,8.024c1.932,4.622-0.191,8.566-2.926,11.884
		c-6.258,7.59-6.757,12.07-1.506,20.688c4.452,7.305,3.688,12.488-2.042,18.49c-4.56,4.777-9.937,7.792-16.322,8.975
		c-6.478,1.2-12.388,3.74-18.046,6.98c-4.745,2.717-9.366,5.491-14.846,6.844c-5.585,1.379-8.996,8.849-6.015,14.158
		c5.138,9.154,3.76,18.342,1.497,27.564c-1.738,7.085-4.551,13.898-6.579,20.921c-2.36,8.172-3.557,16.595-4.288,25.052
		c-0.44,5.093,4.081,8.636,4.804,13.462c0.194,1.295,0.745,2.558,1.275,3.774c0.453,1.039,0.56,1.992-0.472,2.601
		c-1.195,0.707-2.346,0.317-2.987-0.858c-2.379-4.363-4.679-8.911-5.298-13.794c-0.664-5.243-0.25-10.63-0.203-15.953
		c0.061-7.016,3.469-13.248,4.827-19.982c1.208-5.993,3.358-11.79,4.747-17.754c1.414-6.072,1.107-12.125-0.747-18.181
		c-1.724-5.631-1.646-11.526-0.187-17.17c0.987-3.818,3.798-6.455,7.823-7.687c5.248-1.607,10.392-3.525,15.085-6.47
		c2.238-1.404,4.427-2.774,2.179-5.839c-0.497-0.678-0.933-1.389-0.227-2.213c0.786-0.918,1.828-0.901,2.734-0.467
		c11.215,5.36,19.83-0.746,28.58-6.381c1.573-1.013,2.108-2.33,2.193-4.156c0.23-4.968-0.874-9.587-3.296-13.887
		c-1.645-2.919-3.686-5.135-7.597-4.073c-1.429,0.388-3.214,0.397-4.007-1.195c-0.747-1.501,0.962-1.822,1.776-2.498
		c0.694-0.576,1.263-1.167,0.647-2.057c-0.795-1.15-1.922-1.81-3.35-1.907c-2.593-0.177-4.792,1.284-7.234,1.727
		c-2.065,0.375-3.67-0.041-4.006-2.483c-0.282-2.055-0.53-4.501,2.065-4.875c5.983-0.863,10.02-4.978,14.728-8.017
		c2.892-1.867,5.461-4.307,9.248-4.598c2.583-0.198,2.953-2.557,2.849-4.569C761.869,197.195,762.007,193.312,766.133,191.129z"/>
	<path fill="#020202" d="M732.596,361.892c5.682,2.294,12.68,13.112,11.518,19.294c-2.145,11.414-5.692,18.947-18.531,21.663
		c-11.771,2.49-23.369,2.396-35.137-0.209c-13.052-2.889-25.494-7.594-38.151-11.688c-7.46-2.413-15.493-3.088-22.798-5.549
		c-12.708-4.281-25.206-1.216-37.81-1.525c-24.326-0.596-46.599-7.734-65.142-24.324c-0.496-0.443-0.947-0.937-1.426-1.399
		c-1.69-1.627-3.064-3.794-1.03-5.546c1.992-1.715,3.219,0.964,4.276,2.168c9.131,10.403,20.926,17.222,33.672,21.097
		c13.624,4.142,28.164,6.05,42.438,3.037c7.495-1.582,14.212,0.446,21.104,1.819c9.515,1.896,19.09,3.692,28.293,6.957
		c4.825,1.712,9.747,3.149,14.61,4.757c14.471,4.784,29.147,8.222,44.554,7.923c7.041-0.137,13.344-2.535,19.441-5.477
		c6.412-3.094,9.223-17.416,4.908-23.161C732.785,365.608,732.785,365.608,732.596,361.892z"/>
	<path fill="#010101" d="M749.553,48.049c6.078,6.338,13.478,7.443,20.437,3.452c4.804-2.755,8.967-6.334,12.487-10.634
		c2.864-3.499,5.955-3.978,9.324-0.693c3.255,3.174,7.932,4.882,10.127,9.582c-3.576,1.592-5.91-0.216-8.253-2.096
		c-5.581-4.477-7.087-4.557-11.497,0.752c-4.403,5.301-10.605,8.321-15.476,13.033c-2.923,2.827-6.853,2.257-10.246,0.22
		c-3.255-1.954-6.503-3.981-9.478-6.327c-6.905-5.443-14.623-9.107-23.069-11.385c-4.44-1.197-5.028-3.071-2.213-6.627
		c3.548-4.483,10.031-4.213,14.879,0.602c1.4,1.391,2.359,3.212,4.327,4.047c6.864,2.914,9.102,1.947,11.839-4.987
		c1.586-4.017,2.615-8.109,3.364-12.386c0.992-5.667,6.161-7.484,10.743-9.357c4.34-1.774,8.57-0.733,12.295,1.929
		c1.977,1.412,0.892,3.678,0.961,5.594c0.038,1.046-0.537,1.334-1.534,1.405c-2.159,0.152-2.015-1.677-2.775-2.849
		c-2.37-3.65-10.432-2.994-12.877,1.467c-2.622,4.782-4.386,10.036-6.51,15.09c-0.515,1.226-0.29,2.351,0.865,3.049
		c1.077,0.651,1.931-0.15,2.596-0.838c2.312-2.392,4.554-4.852,6.813-7.295c1.309-1.416,3.073-2.852,4.684-1.423
		c1.683,1.493,0.164,3.246-0.975,4.743C765.288,42.824,759.533,48.403,749.553,48.049z"/>
	<path fill="#030303" d="M448.228,392.113c-1.339-0.253-1.524-1.221-1.361-1.932c0.368-1.601,0.63-3.448,1.603-4.656
		c10.107-12.538,19.601-25.644,33.513-34.558c7.432-4.763,15.91-6.568,24.041-9.304c6.869-2.312,14.113-3.682,20.303-7.61
		c3.134-1.989,6.873-2.027,9.938-4.358c9.665-7.35,14.681-17.659,19.467-28.325c3.965-8.836,6.549-18.012,8.443-27.445
		c0.159-0.794,0.494-1.65,1.008-2.256c1.031-1.217,0.938-4.37,3.488-3.103c2.391,1.188,0.883,3.059,0.061,5.008
		c-3.148,7.47-4.465,15.541-6.633,23.311c-2.868,10.281-8.702,18.53-14.558,26.949c-7.986,11.481-20.735,14.674-32.929,19.034
		c-12.488,4.465-26.16,6.371-36.432,15.923c-8.35,7.764-16.451,15.749-22.878,25.272c-1.575,2.333-3.543,4.405-5.378,6.557
		C449.408,391.227,448.722,391.686,448.228,392.113z"/>
	<path fill="#020202" d="M757.841,117.445c1.171,3.314-0.316,5.887-1.058,8.557c-0.701,2.524-2.077,4.884,2.175,6.062
		c2.944,0.816,1.613,2.802-0.405,3.616c-2.72,1.098-4.204,3.022-5.076,5.709c-0.973,2.999-1.977,5.742,2.601,6.682
		c2.509,0.515,1.641,1.805,0.251,3.005c-1.38,1.192-2.695,2.469-3.962,3.783c-5.396,5.595-8.641,5.934-15.703,1.549
		c2.272-2.121,5.068-0.908,7.6-1.237c1.031-0.134,2.243-0.29,2.429-1.355c0.259-1.485-1.058-1.896-2.232-2.02
		c-8.686-0.918-15.251-6.793-23.844-9.884c8.302-6.479,16.647-11.612,26.525-13.379c3.695-0.661,5.592-1.968,6.411-5.542
		C754.06,120.791,755.01,118.584,757.841,117.445z"/>
	<path fill="#030303" d="M677.054,26.901c1.109,0,3.129,0.216,5.089-0.037c9.253-1.193,16.219,2.868,23.114,8.591
		c7.804,6.477,17.294,10.378,26.617,14.329c0.76,0.322,1.599,0.474,2.33,0.844c1.504,0.761,3.378,1.769,2.605,3.634
		c-0.633,1.527-2.7,0.71-4.013,0.499c-4.798-0.769-9.18-2.769-13.419-5.084c-8.151-4.451-15.895-9.65-24.057-14.003
		c-9.635-5.138-20.152-6.991-30.96-3.319c-1.521,0.517-3.096,1.262-3.779-0.62c-0.639-1.761,1.148-2.62,2.428-3.161
		C667.208,26.802,671.617,26.156,677.054,26.901z"/>
	<path fill="#040404" d="M604.156,220.229c0.575-4.72,3.382-7.934,6.805-10.263c10.498-7.143,11.665-17.06,9.758-28.495
		c-1.217-7.294-0.629-14.608,4.686-20.606c1.118-1.261,2.539-2.721,4.232-1.297c2.049,1.722-0.209,2.682-1.052,3.968
		c-4.027,6.142-5.238,13.013-3.56,20.012c2.825,11.779-1.772,23.994-12.29,29.928c-4.113,2.32-4.462,5.648-3.377,9.302
		c0.979,3.295,2.729,6.372,4.267,9.482c0.477,0.965,0.956,1.758,0.056,2.645c-0.679,0.669-1.811,0.873-2.173,0.119
		C609.107,230.015,604.836,225.902,604.156,220.229z"/>
	<path fill="#030303" d="M505.947,273.4c0-1.998-0.075-3.999,0.018-5.993c0.141-3.026,1.864-4.645,4.837-4.426
		c3.113,0.229,2.578,2.491,2.529,4.771c-0.163,7.557,0.989,14.548,8.544,18.772c2.527,1.413,4.802,2.047,7.52,1.052
		c4.825-1.767,9.657-3.516,14.506-5.214c1.758-0.616,3.992-1.272,4.749,0.984c0.717,2.137-1.698,2.539-3.114,3.119
		c-4.139,1.694-8.454,2.987-12.504,4.861c-4.904,2.27-9.218,1.433-13.609-1.269c-3.201-1.969-6.068-4.514-10.034-5.237
		c-2.305-0.42-3.388-2.557-3.468-4.93c-0.072-2.161-0.015-4.327-0.015-6.49C505.919,273.4,505.933,273.4,505.947,273.4z"/>
	<path fill="#030303" d="M712.795,125.94c7.831-14.729,20.188-22.145,35.497-24.315c4.981-0.706,10.098,2.753,14.62,5.566
		c1.77,1.101,1.277,3.077,0.555,4.481c-1.109,2.157-2.512,0.552-3.641-0.211c-5.228-3.534-10.819-3.727-16.682-2.028
		c-8.72,2.528-16.847,6.022-23.04,13.062C718.501,124.318,716.58,126.024,712.795,125.94z"/>
	<path fill="#050505" d="M565.228,186.45c-2.937-2.485,0.723-5.172-0.805-8.001c-7.504,5.262-5.433,15.618-12.085,21.438
		c-0.807-5.745,0.871-10.607,3.075-15.372c0.902-1.95,1.921-3.861,2.64-5.878c1.345-3.772,3.808-5.322,7.711-4.218
		c1.632,0.462,3.451,1.145,4.85,0.231c4.324-2.823,8.748-1.954,12.861-0.185c3.798,1.634,6.807,1.237,10.201-0.856
		c1.622-1,4.786-2.616,5.688-0.226c0.824,2.184-2.341,3.664-4.435,4.296c-4.298,1.297-8.318,2.925-13.275,0.592
		c-4.162-1.959-8.814-0.027-12.207,3.526C568.008,183.304,566.644,184.884,565.228,186.45z"/>
	<path fill="#040404" d="M599.239,101.701c6.608,7.833,3.781,15.262,1.829,22.207c-1.245,4.43-3.49,8.666-7.884,11.629
		c-3.638,2.453-6.659,6.123-8.651,10.197c-2.337,4.779-4.704,9.758-0.022,14.666c1.006,1.055,1.488,2.382-0.091,3.324
		c-1.245,0.743-2.44,0.584-3.498-0.723c-3.991-4.932-3.678-10.422-2.051-15.99c1.717-5.876,5.839-10.074,10.711-13.378
		c5.917-4.014,7.996-9.781,8.554-16.43C598.537,112.438,598.82,107.663,599.239,101.701z"/>
	<path fill="#060606" d="M645.56,91.361c3.716,3.986,3.734,7.458,0.992,10.808c-4.528,5.531-9.247,10.91-15.246,14.961
		c-9.299,6.279-10.85,19.06-3.322,27.164c1.363,1.467,3.107,3.107,0.576,4.915c-2.413,1.724-2.985-0.853-4.115-2.066
		c-7.829-8.405-6.07-17.406-1.783-26.649c0.909-1.96,2.617-2.784,4.072-4.084C634.436,109.525,643.528,103.632,645.56,91.361z"/>
	<path fill="#060606" d="M634.697,186.179c2.938,0.344,4.777,1.908,5.805,4.711c3.069,8.365,2.856,16.537-0.93,24.653
		c-5.623,12.054-5.579,12.074,4.267,21.381c-3.885,2.14-6.908,1.381-9.434-2.042c-5.623-7.62-5.721-11.006-0.297-18.794
		c5.826-8.366,6.67-16.886,1.228-25.806C634.658,189.169,633.357,187.813,634.697,186.179z"/>
	<path fill="#070707" d="M494.161,175.352c-1.432,3.778-4.429,6.275-6.594,9.314c-3.183,4.468-5.069,9.082-4.764,14.761
		c0.374,6.963,0.111,13.962,0.047,20.944c-0.042,4.648-1.506,8.697-6.069,12.547c0.551-3.946,1.188-6.886,1.334-9.85
		c0.44-8.93,0.28-17.908,1.133-26.792c0.782-8.142,3.29-15.794,11.13-20.271c0.684-0.391,1.401-0.774,2.153-0.978
		C492.934,174.917,493.443,175.194,494.161,175.352z"/>
	<path fill="#070707" d="M566.008,143.02c-1.518,11.15-5.573,20.591-12.611,28.706c-0.816,0.941-1.747,1.712-2.932,0.631
		c-1.025-0.935-0.963-2.099-0.128-3.131c3.38-4.178,5.048-9.293,7.646-13.898c4.587-8.129,5.094-16.254-0.469-24.213
		c-0.805-1.151-1.629-2.196,0.142-3.238c1.45-0.853,2.537-0.344,3.459,0.806C564.596,133.03,565.152,138.33,566.008,143.02z"/>
	<path fill="#060606" d="M556.165,212.812c5.046,5.314,5.401,8.462,1.956,13.274c-2.745,3.835-6.25,6.786-10.353,9.167
		c-8.03,4.659-9.09,8.697-4.54,16.705c0.63,1.11,0.648,1.812-0.242,2.525c-0.894,0.716-1.791,0.506-2.715-0.135
		c-5.784-4.015-6.268-13.086-0.885-17.517c3.077-2.532,6.111-5.128,9.318-7.486C554.061,225.405,557.028,220.409,556.165,212.812z"
		/>
	<path fill="#090909" d="M676.895,148.067c-3.394-2.159-6.198-4.985-8.76-8.032c-2.721-3.235-3.19-6.652-2.291-11.052
		c1.277-6.256,2.097-12.644,3.2-18.968c0.883-5.062,4.103-8.134,7.664-11.134c1.492-1.258,2.761-0.699,3.756,0.761
		c1.101,1.616-0.066,2.58-1.215,3.188c-6.558,3.472-8.113,9.425-8.409,16.166c-0.123,2.802-0.325,5.717-1.201,8.345
		c-2.001,6.001,0.177,10.271,4.719,13.966c1.505,1.224,3.244,2.366,3.774,4.465C678.659,147.043,678.81,148.112,676.895,148.067z"/>
	<path fill="#090909" d="M703.941,131.033c-6.801-5.949-10.353-20.383-7.074-28.742c3.385-8.628,8.112-12.549,15.187-12.244
		c-1.189,2.249-3.183,3.439-4.968,4.639c-5.058,3.402-7.018,8.369-7.122,14.08c-0.15,8.303-0.576,16.82,7.956,22.126
		c0.987,0.614,1.417,2.123,2.105,3.216c0.653,1.318,1.127,2.952-0.229,3.764c-1.378,0.825-1.927-1.185-2.961-1.755l0.052,0.062
		C706.013,134.402,705.309,132.528,703.941,131.033z"/>
	<path fill="#070707" d="M623.657,475.866c-4.782,0.038-5.756-1.645-4.096-5.813c2.082-5.227,4.871-10.276,3.94-16.33
		c-0.305-1.98,1.5-2.799,3.411-2.626c1.97,0.178,3.022,1.291,2.761,3.312c-0.08,0.621-0.545,1.206-0.886,1.777
		c-0.759,1.268-2.176,2.639-1.448,4.014c0.838,1.584,2.681,0.619,4.063,0.372c1.218-0.218,2.335-0.522,2.906,0.96
		c1.062,2.756,1.539,6.184-0.223,8.109C631.32,472.664,628.513,476.582,623.657,475.866z"/>
	<path fill="#080808" d="M586.121,237.981c-3.354,4.036-6.412,7.674-9.424,11.35c-4.294,5.241-2.773,10.643,3.536,12.738
		c2.225,0.739,6.393,0.723,5.421,3.581c-0.931,2.735-4.862,1.253-7.381,0.366c-8.391-2.956-10.452-10.791-5.231-18.13
		C576.297,243.31,578.709,237.989,586.121,237.981z"/>
	<path fill="#0A0A0A" d="M617.879,148.637c1.525,0.494,3.129-0.119,3.298,1.507c0.112,1.075-1.033,1.492-1.941,1.977
		c-9.038,4.826-12.454,13.609-9.145,23.347c0.214,0.628,0.45,1.265,0.536,1.917c0.215,1.643,1.689,3.881-1.218,4.407
		c-2.502,0.453-2.609-1.801-3.216-3.539c-2.961-8.474-1.436-16.172,3.513-23.485C611.872,151.566,614.828,149.83,617.879,148.637z"
		/>
	<path fill="#0F0F0F" d="M672.203,206.127c-5.787,4.617-13.107,2.44-14.434-3.599c-2.725-12.404-1.663-15.231,8.49-22.324
		c1.404,2.674,0.535,4.995-1.638,6.359c-6.524,4.095-3.681,10.087-2.853,15.199C662.596,206.873,667.254,207.053,672.203,206.127z"
		/>
	<path fill="#0A0A0A" d="M144.838,480.893c-9.025-0.676-9.517-1.676-4.967-9.523c1.485-2.561,3.311-4.394,6.389-4.845
		c1.699-0.249,3.454-0.595,4.725,0.673c1.553,1.549-0.416,2.635-0.983,3.829c-0.638,1.343-0.401,2.56-0.045,3.848
		C151.269,479.619,149.862,481.27,144.838,480.893z"/>
	<path fill="#0C0C0C" d="M688.154,67.03c-4.824,0.972-25.04-16.632-25.923-21.806C674.398,48.528,678.428,61.049,688.154,67.03z"/>
	<path fill="#0B0B0B" d="M606.612,235.784c-0.46,3.943-2.615,6.058-5.215,7.877c-1.617,1.131-3.314,2.171-4.817,3.438
		c-4.318,3.638-3.853,7.186,1.141,10.07c1.135,0.656,3.489,0.994,2.507,2.857c-1.135,2.153-3.068,1.126-4.667,0.012
		c-8.594-5.992-8.569-6.966-1.611-14.678C597.444,241.488,601.059,238.02,606.612,235.784z"/>
	<path fill="#090909" d="M529.461,226.138c-0.945,4.97-4.6,7.925-6.896,11.648c-2.126,3.447-4.423,6.74-3.117,11.083
		c0.323,1.075,0.458,2.004-0.883,2.304c-1.308,0.292-2.667,0.431-3.511-0.992c-0.162-0.273-0.163-0.641-0.246-0.963
		c-1.454-5.61,6.885-21.08,12.474-23.052C527.843,225.967,528.533,226.138,529.461,226.138z"/>
	<path fill="#0E0E0E" d="M758.63,196.84c-3.478,0.069-7.657-5.457-6.516-8.56c1.269-3.448,3.291-6.477,6.449-8.551
		c0.729-0.479,1.442-1.609,2.473-0.778c0.847,0.682,0.911,1.764,0.376,2.717c-0.72,1.282-1.432,2.597-2.353,3.731
		c-2.082,2.565-4.841,4.937-0.296,7.818c0.861,0.546,1.498,1.856,0.86,3.089C759.452,196.638,758.83,196.74,758.63,196.84z"/>
	<path fill="#131313" d="M652.887,142.396c-1.617,5.053-3.1,9.768-4.648,14.461c-0.325,0.987-1.005,1.816-2.216,1.276
		c-1.139-0.508-2.119-1.525-1.52-2.74c2.8-5.678,5.401-11.236,2.902-17.886c-0.535-1.424,1.571-2.171,2.739-0.989
		C651.776,138.17,652.814,140.288,652.887,142.396z"/>
	<path fill="#0C0C0C" d="M557.729,280.88c-5.046-3.132-3.104-8.638-5.551-12.292c-0.388-0.579,0.6-1.48,1.508-1.595
		c1.155-0.146,1.722,0.602,2.281,1.53C558.21,272.246,558.79,276.179,557.729,280.88z"/>
	<path fill="#1E1E1E" d="M651.07,195.261c-5.608-5.747-2.836-10.808-1.231-15.815C652.078,184.275,650.523,189.28,651.07,195.261z"
		/>
	<path fill="#1B1B1B" d="M676.895,148.067c0.961-0.469,1.092-1.385,1.237-2.294c0.319,0.356,0.789,0.661,0.93,1.078
		c0.521,1.535,4.444,1.778,2.332,3.789C679.882,152.08,678.1,149.583,676.895,148.067z"/>
	<path fill="#131313" d="M706.835,136.118c2.586,1.748,3.563,0.942,3.19-2.009c1.576,1.766,0.925,3.514,0.085,5.43
		C708.216,138.979,707.339,137.729,706.835,136.118z"/>
	<path fill="#131313" d="M703.941,131.033c2.169,1.036,2.864,2.916,2.946,5.147C705.319,134.8,704.77,132.836,703.941,131.033z"/>
	<path fill="#FEFEFE" d="M79.691,212.346c-0.257-15.253,1.741-30.181,5.663-44.91c6.099-22.906,19.204-41.026,37.475-55.691
		c6.488-5.207,13.105-10.254,19.571-15.487c11.206-9.071,25.268-10.474,38.378-14.416c8.756-2.633,17.495-2.048,26.576-0.972
		c14.218,1.685,24.397,9.909,34.407,18.576c12.139,10.511,21.863,23.186,31.191,36.232c5.433,7.599,8.551,16.448,14.154,23.899
		c2.08,2.767,2.802,6.227,0.899,9.408c-1.453,2.428-0.409,3.441,1.394,4.805c3.502,2.649,5.464,6.391,5.653,10.707
		c0.971,22.16-0.546,43.834-11.693,63.864c-7.15,12.847-17.132,23.239-27.249,33.613c-1.94,1.989-2.784,0.603-3.924-0.577
		c-4.276-4.429-8.416-9.011-14.097-11.763c-2.701-1.309-5.392-2.612-8.474-2.696c-5.028-0.137-8.547,2.485-11.097,6.46
		c-2.388,3.723-1.184,7.33,0.993,10.747c3.42,5.369,7.958,9.817,12.109,14.575c1.75,2.007,1.791,3.369,0.105,5.472
		c-9.964,12.421-22.467,19.964-38.726,18.866c-10.564-0.713-20.913,0.513-31.348,1.26c-11.933,0.854-23.531-0.873-34.907-4.552
		c-12.224-3.953-19.729-13.232-26.132-23.431C84.501,270.669,80.099,241.973,79.691,212.346z"/>
	<path fill="#FEFEFE" d="M4.654,288.978c-0.323-4.461,1.299-8.972,3.546-13.306c4.672-9.011,9.858-17.686,15.943-25.848
		c21.763-29.19,37.466-61.391,47.801-96.294c6.856-23.155,18.169-43.826,35.339-61.078c1.652-1.66,3.191-3.424,5.263-4.536
		c18.496-9.929,37.382-18.862,58.326-22.42c3.51-0.596,6.895,0.393,10.273,1.106c2.536,0.535,4.078,2.08,4.089,4.876
		c0.012,3.164-2.331,3.825-4.648,4.22c-14.779,2.522-28.68,7.862-41.125,15.837c-37.563,24.071-60.446,57.666-64.248,103.002
		c-2.231,26.606,0.372,52.888,5.359,78.976c3.052,15.966-0.15,24.262-13.66,33.04c-7.373,4.79-14.547,9.888-23.329,12.046
		C20.877,324.182,4.658,308.994,4.654,288.978z"/>
	<path fill="#FEFEFE" d="M210.601,351.602c-1.186-2.988-3.671-3.276-6.188-3.67c-3.878-0.608-6.029-2.496-4.952-6.853
		c0.595-2.404,0.601-4.958,1.236-7.348c1.751-6.589,12.647-12.623,19.159-10.88c1.863,0.498,1.124,1.709,1.093,2.717
		c-0.357,11.64-2.835,23.035-4.121,34.571c-0.699,6.27-2.827,7.064-8.83,5.21c-2.528-0.781-5.193-1.104-7.775-1.724
		c-3.849-0.923-4.952-3.279-3.962-7.095c1.026-3.953,2.825-6.337,7.337-5.229C205.766,351.832,207.881,353.382,210.601,351.602z"/>
	<path fill="#FEFEFE" d="M112.584,333.848c-6.418,0.631-12.417-3.615-19.194-3.16c-1.588,0.107-1.533-1.201-1.276-2.021
		c2.223-7.097,2.537-14.779,6.753-21.279c1.746-2.691,2.626-1.968,4.138,0.183c4.003,5.692,9.465,9.92,15.488,13.114
		c3.955,2.097,3.912,4.269,2.94,8.023c-1.043,4.031-3.035,5.668-6.984,5.328C113.953,333.993,113.457,333.936,112.584,333.848z"/>
	<path fill="#FEFEFE" d="M307.837,144.918c2.333,0,4.674-0.125,6.996,0.035c2.275,0.157,4.237,1.187,5.141,3.392
		c0.978,2.384,0.383,4.645-1.443,6.411c-5.422,5.246-11.917,8.529-19.386,9.395c-5.448,0.631-12.948-9.439-11.063-14.425
		c0.618-1.635,2.182-1.994,3.583-2.406c2.706-0.795,5.429-1.619,8.204-2.062c2.614-0.418,5.304-0.362,7.96-0.514
		C307.832,144.802,307.835,144.86,307.837,144.918z"/>
	<path fill="#FEFEFE" d="M250,286.711c-0.607,0.903-1.118,1.976-1.908,2.774c-2.097,2.12-4.298,4.139-6.489,6.165
		c-2.528,2.338-5.011,2.351-7.299-0.333c-3.55-4.163-7.082-8.342-10.579-12.549c-1.845-2.219-2.678-4.682-0.772-7.252
		c2.149-2.898,4.904-5.666,8.719-4.36c7.443,2.548,12.762,8.096,17.606,14.073C249.578,285.599,249.711,286.104,250,286.711z"/>
	<path fill="#FDFDFD" d="M111.361,359.631c-0.195,8.467-1.935,9.967-9.944,8.707c-4.428-0.696-8.858-1.402-13.26-2.244
		c-4.925-0.942-6.088-2.829-5.016-7.732c2.088-9.554,2.126-9.559,11.368-7.145c4.176,1.091,8.371,2.109,12.572,3.101
		C110.055,355.021,111.912,356.502,111.361,359.631z"/>
	<path fill="#FDFDFD" d="M110.337,350.76c-6.466-1.208-13.416-2.794-20.036-5.341c-4.83-1.859-2.047-5.624-1.51-8.887
		c0.622-3.779,2.978-2.05,4.876-1.956c6.763,0.335,13.091,3.284,19.924,3.277c3.06-0.003,3.918,1.84,3.499,4.658
		C116.245,348.188,114.417,350.677,110.337,350.76z"/>
	<path fill="#FDFDFD" d="M186.626,345.09c-1.164,0-2.361,0.177-3.488-0.028c-10.874-1.978-11.048-1.682-5.746-11.82
		c2.742-5.243,8.399-7.105,14.139-6.136c3.901,0.659,5.495,2.797,5.09,6.513c-0.323,2.968-0.765,5.942-1.449,8.845
		C194.523,345.223,193.272,345.531,186.626,345.09z"/>
	<path fill="#FDFDFD" d="M142.442,345.617c-0.207,1.973-0.257,3.309-0.498,4.609c-1.16,6.239-1.873,6.61-8.296,5.325
		c-3.242-0.648-6.571-0.852-9.827-1.443c-3.815-0.693-5.5-2.833-4.064-6.771c0.508-1.394,1.029-2.787,1.46-4.205
		c1.023-3.37,2.931-4.724,6.617-3.751c3.344,0.882,6.833,1.356,10.288,1.633C141.617,341.294,143.609,342.359,142.442,345.617z"/>
	<path fill="#FDFDFD" d="M119.761,357.436c6.05,1.02,11.108,1.849,16.157,2.734c2.258,0.396,3.322,1.625,3.302,4.115
		c-0.056,6.933-2.887,9.511-9.6,8.683c-3.763-0.464-7.49-0.907-11.229-1.697c-4.876-1.03-3.979-4.27-3.375-7.204
		C115.641,361.028,116.034,357.252,119.761,357.436z"/>
	<path fill="#FDFDFD" d="M152.993,362.026c0.333,0.033,2.214-0.034,3.941,0.45c2.207,0.617,5.425-0.391,6.183,2.978
		c0.921,4.094-0.071,8.068-2.403,11.351c-1.766,2.486-17.914-0.882-19.2-3.7C139.081,367.772,144.296,361.982,152.993,362.026z"/>
	<path fill="#FCFCFC" d="M165.129,342.752c-3.883-0.873-7.768-1.733-11.646-2.625c-2.181-0.502-4.491-1.181-4.106-4.015
		c0.376-2.77,0.904-6.463,4.147-6.692c5.619-0.397,11.159-1.966,16.862-1.297c3.082,0.362,4.007,1.844,2.756,4.679
		c-1.134,2.569-2.263,5.141-3.416,7.701C168.819,342.511,167.175,342.961,165.129,342.752z"/>
	<path fill="#FDFDFD" d="M175.861,348.033c4.611,0.403,8.76,0.663,12.882,1.157c3.288,0.394,5.249,2.124,4.392,5.741
		c-0.785,3.314-0.913,7.529-5.845,7.177c-4.288-0.307-8.557-1.151-12.777-2.03c-3.194-0.665-5.666-2.349-4.786-6.207
		C170.509,350.438,171.88,347.435,175.861,348.033z"/>
	<path fill="#FCFCFC" d="M155.932,358.359c-0.664-0.044-1.327-0.096-1.991-0.13c-8.835-0.444-10.458-3.114-7.032-11.277
		c1.07-2.549,2.703-3.681,5.419-3.112c3.408,0.714,6.817,1.428,10.213,2.197c3.466,0.784,4.274,2.98,3.761,6.351
		c-0.515,3.384-1.014,6.358-5.389,6.251c-1.66-0.041-3.321-0.007-4.982-0.007C155.93,358.541,155.931,358.45,155.932,358.359z"/>
	<path fill="#FBFBFB" d="M141.953,337.928c-5.364-0.922-10.021-2.191-14.917-2.144c-1.656,0.016-3.425-1.447-2.794-3.369
		c0.876-2.67,1.056-6.543,4.892-6.66c5.175-0.158,10.126,1.679,15,3.233c2.692,0.858,1.436,3.437,0.851,5.178
		C144.427,335.823,144.427,338.507,141.953,337.928z"/>
	<path fill="#E4E4E4" d="M755.088,215.334c-1.256,0.148-2.303-0.314-1.87-1.557c0.792-2.272,2.885-3.177,5.088-3.375
		c0.876-0.078,2.911-0.118,2.43,1.533C759.97,214.559,757.162,214.547,755.088,215.334z"/>
	<path fill="#D9D9D9" d="M754.902,220.087c1.181,0.169,2.385,0.445,2.196,2.023c-0.13,1.083-0.958,1.748-2.046,1.833
		c-1.364,0.107-2.309-0.689-2.48-1.948C752.355,220.384,753.763,220.334,754.902,220.087z"/>
	<path fill="#ECECEC" d="M742.094,146.384c-0.843,0.827-1.683,0.675-2.448,0.446c-2.289-0.686-5.069-0.687-5.776-3.775
		c-0.212-0.926,0.199-1.658,1.138-1.848c3.103-0.626,4.937,1.202,6.449,3.513C741.792,145.232,741.91,145.885,742.094,146.384z"/>
	<path fill="#F3F3F3" d="M742.251,137.097c-1.463,0.063-2.238-0.106-2.559-1.046c-0.33-0.966,0.203-1.657,0.995-1.926
		c2.457-0.835,4.94-1.608,7.451-2.261c0.689-0.179,1.71-0.201,2.024,0.807c0.306,0.982-0.435,1.638-1.143,1.927
		C746.616,135.577,744.153,136.406,742.251,137.097z"/>
	<path fill="#F2F2F2" d="M632.117,467.063c-1.283,2.903-4.466,4.753-7.443,6.591c-1.253,0.774-2.057-0.995-1.694-2.105
		c1.127-3.446,3.46-5.908,6.921-7.14C631.65,463.786,632.353,464.622,632.117,467.063z"/>
	<path fill="#E6E6E6" d="M143.474,475.778c-2.078,0.163-1.922-1.511-2.104-2.324c-0.721-3.221,2.589-3.063,4.138-4.249
		c1.143-0.875,2.171,0.396,2.091,1.71C147.434,473.643,144.672,474.166,143.474,475.778z"/>
	<path fill="#010101" d="M189.753,126.671c5.78,0.154,9.076,1.908,10.824,5.694c1.658,3.593,0.17,6.748-2.22,9.572
		c-4.467,5.279-9.317,6.759-13.83,4.123c-3.794-2.216-5.438-5.209-3.277-9.515C183.487,132.089,184.416,126.304,189.753,126.671z"/>
</g>
</svg>
