<?xml version="1.0" encoding="utf-8"?>
<!-- Generator: Adobe Illustrator 17.0.0, SVG Export Plug-In . SVG Version: 6.00 Build 0)  -->
<!DOCTYPE svg PUBLIC "-//W3C//DTD SVG 1.1//EN" "http://www.w3.org/Graphics/SVG/1.1/DTD/svg11.dtd">
<svg version="1.1" id="Layer_1" xmlns="http://www.w3.org/2000/svg" xmlns:xlink="http://www.w3.org/1999/xlink" x="0px" y="0px"
	 width="530.003px" height="530.003px" viewBox="697.071 -863.665 530.003 530.003"
	 enable-background="new 697.071 -863.665 530.003 530.003" xml:space="preserve">
<rect x="2.769" y="-40.849" fill="#EFEFEF" width="532.242" height="532.242"/>
<g>
	<polygon points="153.649,324.071 153.649,232.842 392.564,232.842 392.564,211.631 153.649,211.631 153.649,147.684 
		405.342,147.684 405.342,126.472 132.438,126.472 132.438,126.472 132.438,324.071 	"/>
</g>
<rect x="2.769" y="-837.558" fill="#EFEFEF" width="532.242" height="532.242"/>
<g>
	<polygon points="117.541,-546.29 182.049,-610.799 350.987,-441.861 365.986,-456.86 197.048,-625.798 242.265,-671.015 
		420.239,-493.041 435.238,-508.04 242.265,-701.013 242.265,-701.013 102.542,-561.289 	"/>
</g>
<rect x="697.071" y="-863.665" fill="#EFEFEF" width="532.242" height="532.242"/>
<g>
	<polygon points="838.24,-520.183 902.749,-584.692 967.569,-520.183 982.568,-535.182 917.748,-599.691 962.965,-644.908 
		1088.143,-520.183 1103.142,-535.182 962.965,-674.906 962.965,-674.906 823.241,-535.182 	"/>
</g>
</svg>
