<?xml version="1.0" encoding="utf-8"?>
<!-- Generator: Adobe Illustrator 17.0.0, SVG Export Plug-In . SVG Version: 6.00 Build 0)  -->
<!DOCTYPE svg PUBLIC "-//W3C//DTD SVG 1.1//EN" "http://www.w3.org/Graphics/SVG/1.1/DTD/svg11.dtd">
<svg version="1.1" id="Layer_1" xmlns="http://www.w3.org/2000/svg" xmlns:xlink="http://www.w3.org/1999/xlink" x="0px" y="0px"
	 width="319.379px" height="159.333px" viewBox="0 0 319.379 159.333" enable-background="new 0 0 319.379 159.333"
	 xml:space="preserve">
<g>
	<g>
		<path d="M296.141,135.763c30.985-30.985,30.985-81.539,0-112.525s-81.539-30.985-112.524,0l0,0V0.002l-16.541,0v51.659h51.678
			V35.135l-23.954-0.014c0,0,0.233-0.233,0.466-0.466c24.695-24.695,64.766-24.695,89.46,0c24.695,24.695,24.695,64.766,0,89.46
			c-24.695,24.695-64.766,24.695-89.46,0c-7.688-7.688-13.046-17.24-16.075-27.49l-2.33-7.921l-15.609,4.426l2.33,7.921
			c3.728,13.046,10.717,24.928,20.268,34.48c15.376,15.609,35.877,23.297,56.146,23.297S280.765,151.139,296.141,135.763z"/>
	</g>
	<polygon points="86.206,0.002 86.206,71.143 9.965,71.143 9.965,87.684 86.206,87.684 86.206,137.55 0,137.55 0,154.091 
		102.747,154.091 102.747,154.091 102.747,0.002 	"/>
</g>
</svg>
