<?xml version="1.0" encoding="utf-8"?>
<!-- Generator: Adobe Illustrator 17.0.0, SVG Export Plug-In . SVG Version: 6.00 Build 0)  -->
<!DOCTYPE svg PUBLIC "-//W3C//DTD SVG 1.1//EN" "http://www.w3.org/Graphics/SVG/1.1/DTD/svg11.dtd">
<svg version="1.1" id="Layer_1" xmlns="http://www.w3.org/2000/svg" xmlns:xlink="http://www.w3.org/1999/xlink" x="0px" y="0px"
	 width="120.244px" height="11.086px" viewBox="0 -19.168 120.244 11.086" enable-background="new 0 -19.168 120.244 11.086"
	 xml:space="preserve">
<g>
	<path d="M1.293-17.875h112.613v0.007c1.307-0.007,2.615,0.486,3.611,1.482c0.616,0.616,1.046,1.382,1.289,2.204l0.187,0.635
		l1.251-0.355l-0.187-0.635c-0.299-1.046-0.859-1.998-1.625-2.764c-1.233-1.251-2.876-1.867-4.501-1.867
		c-0.009,0-0.017,0.001-0.026,0.001v-0.001H0v2v9.086h1.293v-2.6h112.91v-1.293H1.293V-17.875z"/>
	<polygon points="116.234,-11.975 116.234,-10.682 118.834,-10.682 118.834,-8.083 120.127,-8.083 120.127,-10.682 120.127,-11.975 
		118.834,-11.975 	"/>
</g>
</svg>
