<?xml version="1.0" encoding="utf-8"?>
<!-- Generator: Adobe Illustrator 17.0.0, SVG Export Plug-In . SVG Version: 6.00 Build 0)  -->
<!DOCTYPE svg PUBLIC "-//W3C//DTD SVG 1.1//EN" "http://www.w3.org/Graphics/SVG/1.1/DTD/svg11.dtd">
<svg version="1.1" id="Layer_1" xmlns="http://www.w3.org/2000/svg" xmlns:xlink="http://www.w3.org/1999/xlink" x="0px" y="0px"
	 width="159.689px" height="159.333px" viewBox="159.689 0 159.689 159.333" enable-background="new 159.689 0 159.689 159.333"
	 xml:space="preserve">
<g>
	<g>
		<path d="M184.491,23.064c-30.985,30.985-30.985,81.539,0,112.525s81.539,30.985,112.524,0l0,0v23.236h16.541v-51.659h-51.678
			v16.526l23.954,0.014c0,0-0.233,0.233-0.466,0.466c-24.695,24.695-64.766,24.695-89.46,0c-24.695-24.695-24.695-64.766,0-89.46
			c24.695-24.695,64.766-24.695,89.46,0c7.688,7.688,13.046,17.24,16.075,27.49l2.33,7.921l15.609-4.426l-2.33-7.921
			c-3.728-13.046-10.717-24.928-20.268-34.48C281.406,7.687,260.905-0.001,240.636-0.001
			C220.367-0.001,199.867,7.688,184.491,23.064z"/>
	</g>
</g>
</svg>
