<?xml version="1.0" encoding="utf-8"?>
<!-- Generator: Adobe Illustrator 17.0.0, SVG Export Plug-In . SVG Version: 6.00 Build 0)  -->
<!DOCTYPE svg PUBLIC "-//W3C//DTD SVG 1.1//EN" "http://www.w3.org/Graphics/SVG/1.1/DTD/svg11.dtd">
<svg version="1.1" id="Layer_1" xmlns="http://www.w3.org/2000/svg" xmlns:xlink="http://www.w3.org/1999/xlink" x="0px" y="0px"
	 width="362.257px" height="362.747px" viewBox="0 0 362.257 362.747" enable-background="new 0 0 362.257 362.747"
	 xml:space="preserve">
<circle fill="none" cx="181.374" cy="181.373" r="181.374"/>
<g>
	<path fill="#131313" d="M32.04,215.199c2.701,0,5.276-0.549,7.62-1.54l-7.855,1.529C31.884,215.188,31.961,215.199,32.04,215.199z"
		/>
	<path fill="#131313" d="M32.04,175.957c-1.338,0-2.645,0.137-3.909,0.393l8.004,0.044C34.813,176.112,33.445,175.957,32.04,175.957
		z"/>
	<path fill="#131313" d="M217.707,181.374c0-20.034-16.299-36.333-36.333-36.333s-36.334,16.299-36.334,36.333
		s16.3,36.333,36.334,36.333S217.707,201.408,217.707,181.374z M153.04,181.374c0-15.623,12.711-28.333,28.334-28.333
		s28.333,12.71,28.333,28.333s-12.71,28.333-28.333,28.333S153.04,196.997,153.04,181.374z"/>
	<path fill="#131313" d="M181.374,234.96c-7.124,0-13.188,4.559-15.472,10.906c2.643,0.634,5.345,1.115,8.1,1.421
		c1.45-2.579,4.209-4.327,7.372-4.327c3.163,0,5.922,1.748,7.372,4.327c2.755-0.306,5.457-0.787,8.1-1.421
		C194.561,239.519,188.497,234.96,181.374,234.96z"/>
	<path fill="#131313" d="M181.374,259.871c-3.25,0-6.073-1.845-7.488-4.541c-2.977-0.299-5.896-0.792-8.76-1.434
		c1.202,7.897,8.02,13.975,16.248,13.975c8.228,0,15.045-6.077,16.247-13.974c-2.864,0.641-5.783,1.134-8.76,1.434
		C187.446,258.025,184.623,259.871,181.374,259.871z"/>
	<path fill="#131313" d="M196.845,245.866c-2.643,0.634-5.345,1.115-8.1,1.421c0.687,1.222,1.084,2.629,1.084,4.128
		c0,1.413-0.353,2.743-0.968,3.914c2.977-0.299,5.896-0.792,8.76-1.434c0.124-0.811,0.208-1.635,0.208-2.481
		C197.829,249.466,197.47,247.603,196.845,245.866z"/>
	<path fill="#131313" d="M172.917,251.416c0-1.499,0.396-2.906,1.084-4.129c-2.755-0.306-5.456-0.787-8.1-1.421
		c-0.625,1.737-0.984,3.6-0.984,5.55c0,0.845,0.084,1.669,0.208,2.481c2.864,0.641,5.783,1.134,8.76,1.434
		C173.27,254.158,172.917,252.828,172.917,251.416z"/>
	<path fill="#131313" d="M181.374,28.04c-78.389,0-143.208,59.135-152.238,135.134h8.06C46.18,91.598,107.401,36.04,181.374,36.04
		c80.137,0,145.333,65.196,145.333,145.333c0,80.137-65.196,145.333-145.333,145.333c-64.445,0-119.218-42.167-138.202-100.356
		l-7.814,1.845c19.837,61.719,77.79,106.511,146.015,106.511c84.548,0,153.333-68.785,153.333-153.333S265.921,28.04,181.374,28.04z
		"/>
	<path fill="#131313" d="M51.661,195.578c0,8.118-4.956,15.1-12.001,18.081c0.599,2.63,1.268,5.233,2.007,7.807
		c10.497-3.916,17.994-14.041,17.994-25.887c0-13.666-9.978-25.039-23.031-27.232c-0.238,2.663-0.404,5.346-0.496,8.048
		C44.994,178.283,51.661,186.163,51.661,195.578z"/>
	<path fill="#131313" d="M12.419,195.578c0-9.481,6.76-17.411,15.712-19.228c0.089-2.743,0.251-5.468,0.483-8.173
		c-13.619,1.693-24.195,13.331-24.195,27.401c0,15.23,12.391,27.621,27.621,27.621c0.599,0,1.192-0.026,1.781-0.064
		c-0.743-2.621-1.412-5.272-2.017-7.948C21.095,215.059,12.419,206.318,12.419,195.578z"/>
	<path fill="#131313" d="M39.66,213.658c-2.344,0.991-4.919,1.54-7.62,1.54c-0.079,0-0.156-0.011-0.235-0.012
		c0.605,2.676,1.274,5.327,2.017,7.948c2.742-0.176,5.377-0.749,7.846-1.67C40.927,218.891,40.258,216.288,39.66,213.658z"/>
	<path fill="#131313" d="M32.04,175.957c1.405,0,2.773,0.155,4.095,0.437c0.091-2.702,0.258-5.385,0.496-8.048
		c-1.494-0.251-3.026-0.389-4.591-0.389c-1.161,0-2.302,0.08-3.426,0.22c-0.232,2.705-0.394,5.43-0.483,8.173
		C29.395,176.093,30.702,175.957,32.04,175.957z"/>
	<path fill="#131313" d="M234.075,90.583c0-1.231,0.183-2.418,0.505-3.547c-2.341-1.326-4.736-2.566-7.181-3.718
		c-0.841,2.268-1.324,4.708-1.324,7.265c0,11.563,9.408,20.971,20.972,20.971c4.918,0,9.437-1.714,13.017-4.559
		c-1.851-1.958-3.773-3.848-5.764-5.664c-2.072,1.403-4.568,2.223-7.253,2.223C239.894,103.554,234.075,97.736,234.075,90.583z"/>
	<path fill="#131313" d="M247.046,69.612c-6.116,0-11.612,2.648-15.449,6.839c2.541,1.221,5.032,2.532,7.467,3.929
		c2.204-1.728,4.971-2.768,7.983-2.768c7.152,0,12.971,5.819,12.971,12.971c0,1.555-0.289,3.04-0.793,4.423
		c2.092,1.887,4.115,3.849,6.066,5.882c1.728-3.047,2.727-6.559,2.727-10.304C268.017,79.02,258.61,69.612,247.046,69.612z"/>
	<path fill="#131313" d="M259.224,95.006c-0.944,2.59-2.677,4.804-4.924,6.325c1.991,1.816,3.912,3.706,5.764,5.664
		c2.111-1.677,3.889-3.749,5.227-6.107C263.339,98.855,261.316,96.894,259.224,95.006z"/>
	<path fill="#131313" d="M234.58,87.036c0.761-2.669,2.354-4.986,4.484-6.656c-2.435-1.397-4.926-2.708-7.467-3.929
		c-1.813,1.98-3.247,4.304-4.198,6.867C229.844,84.471,232.239,85.711,234.58,87.036z"/>
</g>
<g>
	<path fill="#131313" d="M255.707,181.374c0-40.988-33.346-74.333-74.333-74.333c-40.988,0-74.334,33.346-74.334,74.333
		c0,33.361,22.101,61.633,52.424,71.007l1.177-8.013c-26.451-8.725-45.601-33.658-45.601-62.994
		c0-36.576,29.757-66.333,66.334-66.333s66.333,29.757,66.333,66.333c0,29.341-19.155,54.275-45.612,62.997l1.009,8.062
		C233.518,243.115,255.707,214.8,255.707,181.374z"/>
</g>
<g>
	<path fill="#131313" d="M269.538,105.572l-5.528,5.841c16.017,18.889,25.696,43.314,25.696,69.961
		c0,59.735-48.598,108.333-108.333,108.333S73.04,241.109,73.04,181.374c0-59.735,48.598-108.333,108.334-108.333
		c14.63,0,28.586,2.927,41.329,8.208l2.904-7.466c-13.643-5.63-28.581-8.741-44.233-8.741c-64.146,0-116.334,52.187-116.334,116.333
		s52.187,116.333,116.334,116.333s116.333-52.187,116.333-116.333C297.707,152.44,287.082,125.947,269.538,105.572z"/>
</g>
</svg>
