<?xml version="1.0" encoding="utf-8"?>
<!-- Generator: Adobe Illustrator 17.0.0, SVG Export Plug-In . SVG Version: 6.00 Build 0)  -->
<!DOCTYPE svg PUBLIC "-//W3C//DTD SVG 1.1//EN" "http://www.w3.org/Graphics/SVG/1.1/DTD/svg11.dtd">
<svg version="1.1" id="Layer_1" xmlns="http://www.w3.org/2000/svg" xmlns:xlink="http://www.w3.org/1999/xlink" x="0px" y="0px"
	 width="330.288px" height="306.615px" viewBox="0 0 330.288 306.615" enable-background="new 0 0 330.288 306.615"
	 xml:space="preserve">
<path fill="none" d="M47.242,167.538c0-9.415-6.667-17.295-15.526-19.184l-8.004-0.044C14.76,150.127,8,158.057,8,167.538
	c0,10.74,8.676,19.481,19.386,19.609l7.855-1.529C42.286,182.638,47.242,175.656,47.242,167.538z"/>
<path fill="none" d="M169.466,227.29c1.415,2.695,4.238,4.541,7.488,4.541c3.25,0,6.072-1.845,7.487-4.541
	c-2.463,0.247-4.96,0.377-7.487,0.377C174.427,227.667,171.93,227.537,169.466,227.29z"/>
<path fill="none" d="M205.288,153.333c0-15.623-12.71-28.333-28.333-28.333s-28.334,12.71-28.334,28.333
	s12.711,28.333,28.334,28.333S205.288,168.957,205.288,153.333z"/>
<path fill="none" d="M176.955,206.92c7.124,0,13.187,4.559,15.471,10.906c29.135-6.99,50.862-33.244,50.862-64.492
	c0-36.576-29.757-66.333-66.333-66.333s-66.333,29.757-66.333,66.333c0,31.248,21.726,57.502,50.861,64.492
	C163.767,211.479,169.83,206.92,176.955,206.92z M140.621,153.333c0-20.034,16.3-36.333,36.334-36.333s36.333,16.299,36.333,36.333
	s-16.299,36.333-36.333,36.333S140.621,173.368,140.621,153.333z"/>
<path fill="none" d="M221.656,62.543c0-2.557,0.483-4.997,1.324-7.265C209.003,48.691,193.403,45,176.955,45
	C117.219,45,68.621,93.598,68.621,153.333c0,59.735,48.598,108.333,108.333,108.333s108.333-48.598,108.333-108.333
	c0-28.773-11.279-54.96-29.643-74.379c-3.58,2.846-8.099,4.559-13.017,4.559C231.064,83.514,221.656,74.106,221.656,62.543z
	 M193.202,225.856c-1.202,7.897-8.019,13.974-16.247,13.974c-8.229,0-15.046-6.077-16.248-13.975
	c-33.196-7.434-58.085-37.117-58.085-72.523c0-40.988,33.346-74.333,74.333-74.333c40.987,0,74.333,33.346,74.333,74.333
	C251.288,188.739,226.398,218.423,193.202,225.856z"/>
<path fill="none" d="M55.242,167.538c0,11.846-7.497,21.971-17.994,25.887c17.445,60.701,73.471,105.242,139.706,105.242
	c80.137,0,145.333-65.196,145.333-145.333C322.288,73.196,257.091,8,176.955,8C101.209,8,38.823,66.25,32.212,140.305
	C45.264,142.499,55.242,153.871,55.242,167.538z M176.955,37c17.976,0,35.011,4.1,50.223,11.411
	c3.837-4.191,9.333-6.839,15.449-6.839c11.563,0,20.971,9.408,20.971,20.971c0,3.746-0.999,7.258-2.727,10.304
	c20.066,20.913,32.417,49.283,32.417,80.486c0,64.146-52.187,116.333-116.333,116.333S60.621,217.48,60.621,153.333
	S112.808,37,176.955,37z"/>
<path fill="#131313" d="M213.288,153.333c0-20.034-16.299-36.333-36.333-36.333s-36.334,16.299-36.334,36.333
	s16.3,36.333,36.334,36.333S213.288,173.368,213.288,153.333z M148.621,153.333c0-15.623,12.711-28.333,28.334-28.333
	s28.333,12.71,28.333,28.333s-12.71,28.333-28.333,28.333S148.621,168.957,148.621,153.333z"/>
<path fill="#4539E4" d="M176.955,79c-40.988,0-74.333,33.346-74.333,74.333c0,35.405,24.889,65.089,58.085,72.523
	c-0.124-0.811-0.208-1.635-0.208-2.481c0-1.95,0.359-3.813,0.984-5.55c-29.135-6.991-50.861-33.244-50.861-64.492
	c0-36.576,29.757-66.333,66.333-66.333s66.333,29.757,66.333,66.333c0,31.248-21.726,57.502-50.862,64.492
	c0.625,1.737,0.984,3.6,0.984,5.549c0,0.845-0.084,1.669-0.208,2.481c33.196-7.433,58.086-37.117,58.086-72.523
	C251.288,112.346,217.942,79,176.955,79z"/>
<g>
	<path fill="#131313" d="M176.955,214.92c3.163,0,5.922,1.748,7.372,4.327c2.755-0.306,5.457-0.787,8.1-1.421
		c-2.284-6.347-8.348-10.906-15.471-10.906c-7.124,0-13.188,4.559-15.472,10.906c2.643,0.634,5.345,1.115,8.1,1.421
		C171.032,216.668,173.791,214.92,176.955,214.92z"/>
	<path fill="#131313" d="M176.955,231.831c-3.25,0-6.073-1.845-7.488-4.541c-2.977-0.299-5.896-0.792-8.76-1.434
		c1.202,7.897,8.02,13.975,16.248,13.975c8.228,0,15.045-6.077,16.247-13.974c-2.864,0.641-5.783,1.134-8.76,1.434
		C183.027,229.985,180.204,231.831,176.955,231.831z"/>
	<path fill="#131313" d="M192.426,217.826c-2.643,0.634-5.345,1.115-8.1,1.421c0.687,1.222,1.084,2.629,1.084,4.128
		c0,1.413-0.353,2.743-0.968,3.914c2.977-0.299,5.896-0.792,8.76-1.434c0.124-0.811,0.208-1.635,0.208-2.481
		C193.41,221.426,193.051,219.563,192.426,217.826z"/>
	<path fill="#131313" d="M168.499,223.375c0-1.499,0.396-2.906,1.084-4.129c-2.755-0.306-5.456-0.787-8.1-1.421
		c-0.625,1.737-0.984,3.6-0.984,5.55c0,0.845,0.084,1.669,0.208,2.481c2.864,0.641,5.783,1.134,8.76,1.434
		C168.851,226.118,168.499,224.788,168.499,223.375z"/>
</g>
<path fill="#4539E4" d="M176.955,269.667c64.146,0,116.333-52.187,116.333-116.333c0-31.203-12.351-59.573-32.417-80.486
	c-1.337,2.358-3.116,4.43-5.227,6.107c18.365,19.419,29.643,45.605,29.643,74.379c0,59.735-48.598,108.333-108.333,108.333
	S68.621,213.068,68.621,153.333C68.621,93.598,117.219,45,176.955,45c16.448,0,32.048,3.691,46.025,10.278
	c0.951-2.563,2.385-4.887,4.198-6.867C211.966,41.1,194.93,37,176.955,37C112.808,37,60.621,89.187,60.621,153.333
	S112.808,269.667,176.955,269.667z"/>
<path fill="#4539E4" d="M27.621,147.917c-1.338,0-2.645,0.137-3.909,0.393l8.004,0.044
	C30.394,148.071,29.026,147.917,27.621,147.917z"/>
<path fill="#4539E4" d="M27.621,187.159c2.701,0,5.276-0.549,7.62-1.54l-7.855,1.529C27.465,187.148,27.542,187.159,27.621,187.159z
	"/>
<path fill="#4539E4" d="M176.955,0C96.852,0,30.91,61.744,24.195,140.137c1.123-0.14,2.265-0.22,3.426-0.22
	c1.564,0,3.096,0.138,4.591,0.389C38.823,66.25,101.209,8,176.955,8c80.137,0,145.333,65.196,145.333,145.333
	c0,80.137-65.196,145.333-145.333,145.333c-66.236,0-122.261-44.541-139.706-105.242c-2.469,0.921-5.104,1.495-7.846,1.67
	c18.229,64.317,77.475,111.571,147.552,111.571c84.548,0,153.333-68.785,153.333-153.333S261.502,0,176.955,0z"/>
<g>
	<path fill="#131313" d="M47.242,167.538c0,8.118-4.956,15.1-12.001,18.081c0.599,2.63,1.268,5.233,2.007,7.807
		c10.497-3.916,17.994-14.041,17.994-25.887c0-13.666-9.978-25.039-23.031-27.232c-0.238,2.663-0.404,5.346-0.496,8.048
		C40.575,150.243,47.242,158.123,47.242,167.538z"/>
	<path fill="#131313" d="M8,167.538c0-9.481,6.76-17.411,15.712-19.228c0.089-2.743,0.251-5.468,0.483-8.173
		C10.577,141.83,0,153.468,0,167.538c0,15.23,12.391,27.621,27.621,27.621c0.599,0,1.192-0.026,1.781-0.064
		c-0.743-2.621-1.412-5.272-2.017-7.948C16.676,187.019,8,178.277,8,167.538z"/>
	<path fill="#131313" d="M35.241,185.618c-2.344,0.991-4.919,1.54-7.62,1.54c-0.079,0-0.156-0.011-0.235-0.012
		c0.605,2.676,1.274,5.327,2.017,7.948c2.742-0.176,5.377-0.749,7.846-1.67C36.508,190.851,35.84,188.248,35.241,185.618z"/>
	<path fill="#131313" d="M27.621,147.917c1.405,0,2.773,0.155,4.095,0.437c0.091-2.702,0.258-5.385,0.496-8.048
		c-1.494-0.251-3.026-0.389-4.591-0.389c-1.161,0-2.302,0.08-3.426,0.22c-0.232,2.705-0.394,5.43-0.483,8.173
		C24.976,148.053,26.283,147.917,27.621,147.917z"/>
</g>
<g>
	<path fill="#131313" d="M249.881,73.291c-2.072,1.403-4.568,2.223-7.253,2.223c-7.152,0-12.972-5.819-12.972-12.971
		c0-1.231,0.183-2.418,0.505-3.547c-2.341-1.326-4.736-2.566-7.181-3.718c-0.841,2.268-1.324,4.708-1.324,7.265
		c0,11.563,9.408,20.971,20.972,20.971c4.918,0,9.437-1.714,13.017-4.559C253.793,76.997,251.872,75.107,249.881,73.291z"/>
	<path fill="#131313" d="M242.627,49.572c7.152,0,12.971,5.819,12.971,12.971c0,1.555-0.289,3.04-0.793,4.423
		c2.092,1.887,4.115,3.849,6.066,5.882c1.728-3.047,2.727-6.559,2.727-10.304c0-11.563-9.407-20.971-20.971-20.971
		c-6.116,0-11.612,2.648-15.449,6.839c2.541,1.221,5.032,2.532,7.467,3.929C236.849,50.612,239.616,49.572,242.627,49.572z"/>
	<path fill="#131313" d="M254.805,66.966c-0.944,2.59-2.677,4.804-4.924,6.325c1.991,1.816,3.912,3.706,5.764,5.664
		c2.111-1.677,3.889-3.749,5.227-6.107C258.921,70.815,256.897,68.853,254.805,66.966z"/>
	<path fill="#131313" d="M230.161,58.996c0.761-2.669,2.354-4.986,4.484-6.656c-2.435-1.397-4.926-2.708-7.467-3.929
		c-1.813,1.98-3.247,4.304-4.198,6.867C225.425,56.43,227.82,57.671,230.161,58.996z"/>
</g>
</svg>
